<?xml version="1.0" encoding="UTF-8" standalone="no"?><!DOCTYPE svg PUBLIC "-//W3C//DTD SVG 1.1//EN" "http://www.w3.org/Graphics/SVG/1.1/DTD/svg11.dtd"><svg width="100%" height="100%" viewBox="0 0 3346 2759" version="1.1" xmlns="http://www.w3.org/2000/svg" xmlns:xlink="http://www.w3.org/1999/xlink" xml:space="preserve" xmlns:serif="http://www.serif.com/" style="fill-rule:evenodd;clip-rule:evenodd;stroke-linejoin:round;stroke-miterlimit:2;"><path d="M866.579,2553.22l5.609,-2.859c-2.456,-0.107 -4.907,-0.294 -7.351,-0.558l1.742,3.417Zm955.2,-514.267l-3.737,1.9c4.125,-0.146 1.258,1.317 3.737,-1.9Zm-720.758,371.35c2.162,-3.837 0.242,-2.471 0.15,-4.183c-0.067,1.4 -0.1,2.787 -0.15,4.183Zm300.221,-152.971c0.083,-1.412 0.146,-2.812 0.229,-4.225c-2.208,0.342 -4.396,0.679 -6.525,1.175c2.125,1.071 4.171,1.984 6.296,3.05Zm-9.375,4.779l-2.534,-4.97c-1.033,1.116 -1.954,2.366 -2.895,3.629c1.808,0.445 3.604,0.9 5.429,1.341Zm-449.125,222.58l-3.767,1.92c4.142,-0.154 1.288,1.3 3.767,-1.92Zm232.45,-114.334c4.55,-3.1 1.908,1.179 4.837,-4.416c0.938,-1.263 1.879,-2.521 2.896,-3.63c-3.463,0.984 -6.879,1.942 -10.263,3.08l2.53,4.966Zm-223.925,107.842c0.671,-1.708 1.291,-3.592 1.991,-5.317l-3.733,1.904l1.742,3.413Zm-56.175,24.321c-0.063,1.4 -0.067,2.966 -0.134,4.37c2.179,-4.041 0.138,-2.416 0.134,-4.37Zm440.095,-226.392c5.713,3.542 6.23,4.058 8.88,8.183c2.575,-2.679 5.166,-5.37 7.712,-8.033c-2.475,-0.304 -4.921,-0.425 -7.35,-0.558c1.3,-6.917 -3.221,-2.071 -9.242,0.408Zm-192.562,104.567l0.871,1.708c7.421,-3.975 2.246,-1.146 8.521,-6.492c-0.335,2.3 -0.737,4.59 -1.205,6.867c8.634,-6.158 5.342,-5.263 6.967,-14.104c-4.287,0.816 -8.608,1.65 -12.975,2.308c0.7,7.854 1.85,3.558 -2.179,9.713Zm-226.154,117.383c-0.788,-3.117 -1.671,-6.383 -2.488,-9.483l0.613,10.437l1.875,-0.954Zm154.125,-87.133c2.287,-3.905 0.216,-2.263 0.137,-4.371c0.013,1.558 -0.071,2.966 -0.137,4.371Zm905.475,-463.513l1.841,-0.942c-0.591,1.867 -1.291,3.596 -1.991,5.321c0.079,-1.412 0.146,-2.812 0.15,-4.379Zm-0.438,13.125c9.446,-7.354 10,-6.267 5.179,-17.692c-3.37,1.13 -6.8,2.096 -10.17,3.225c0.52,10.1 3.895,6.034 4.991,14.467Zm-31.746,11.875c0.084,-1.408 0.071,-2.967 0.15,-4.379c3.35,0.446 6.734,0.875 10.113,1.3c-3.463,0.983 -6.908,1.958 -10.263,3.079Zm-12.137,4.033c-1.175,-0.77 -2.442,-1.687 -3.617,-2.458l3.767,-1.921c-0.079,1.413 -0.067,2.971 -0.15,4.379Zm3.229,-12.204c-2.567,7.371 -17.217,12.684 -22.867,20.063c2.059,2.466 4.1,4.946 6.146,7.425c9.079,-6.975 7.359,-5.9 16.892,-8.609c-2.117,-0.961 -4.207,-1.982 -6.267,-3.062c5.863,-0.838 11.721,-1.671 17.534,-2.679c-3.617,-0.892 -7.313,-1.942 -10.9,-2.85c6.733,-0.696 13.529,-1.225 20.291,-1.938c1.634,-5.912 0.742,-1.154 -0.683,-5.904c0.7,-1.725 1.325,-3.608 2.025,-5.333c4.704,4.25 4.287,4.658 9.896,5.512l-5.142,-10.087c6.375,2.621 1.275,-0.258 5.358,5.875l5.759,-7.238c-21.175,0.43 -23.567,6.925 -38.042,8.825Zm-262.9,138.063c-1.771,4.225 -1.579,0.804 -3.55,-2.296l-7.5,3.821c0.096,6.208 1.104,1.979 -1.237,6.883c4.12,3.571 -1.005,2.858 6.375,3.204c-0.063,1.404 -0.146,2.813 -0.134,4.371c2.025,-5.333 4.021,-10.65 6.046,-15.983Zm-119.896,56.983c-5.762,5.675 -11.458,11.508 -17.216,17.179l-2.609,-5.12c-0.471,5.32 -1.004,10.479 -1.425,15.779c2.825,-0.855 2.534,-2.075 2.679,0.587c6.925,-7.633 4.709,-2.591 2.225,-9.537c6.655,-1.046 6.225,-3.955 13.88,-0.621c15.237,-5.613 16.462,-4.279 13.395,-15.429c6.446,3.758 3.38,5.904 9.109,3.962c-0,0 2.429,0.133 2.025,-5.333c3.35,0.446 6.729,0.871 10.033,1.146c-0.504,-4.242 -3.987,-2.075 0.183,-4.2c-2.866,-11.834 -20.437,-2.296 -32.279,1.587Zm-27.475,20.254c-1.508,-1.383 -2.996,-2.771 -4.425,-4l2.534,4.967l1.891,-0.967Zm-143.275,66.75l5.142,10.088l-8.088,-6.634c-2.112,0.488 -4.316,0.834 -6.445,1.33c1.012,7.695 -0.367,4.487 4.166,12.737l-1.875,0.954l-7.112,-9.279c-7.138,2.658 -7.721,3.542 -17.684,7.054c0.355,7.054 -0.679,2.496 -6.712,5.375c5.792,2.134 11.537,4.092 17.329,6.225c2.746,-4.916 3.025,-6.821 3.179,-12.375l1.863,-0.946c1.375,6.725 2.558,2.8 -1.125,7.025c1.487,1.392 2.996,2.775 4.404,4.009c5.537,-4.188 3.75,-4.254 10.262,-3.075c2.9,-5.192 7.042,-6.521 10.734,-16.029c-0.554,-2.65 -1.038,-5.138 -1.592,-7.792c-2.125,0.5 -4.317,0.833 -6.446,1.333Zm-57.662,39.934c-3.942,-2.68 -2.617,-4.334 -8.004,-6.475c-0.558,5.199 -1.055,10.405 -1.492,15.616c9.662,3.679 0.071,-0.625 11.05,-1.525c-3.313,-1.833 -6.613,-3.671 -9.925,-5.5c4.333,0.725 8.571,1.304 12.871,2.046c3.891,-7.458 -1.859,-4.529 6.633,-5.529c-0.471,-7.779 -3.183,-2.879 0.283,-8.75c-1.504,-1.383 -2.991,-2.775 -4.42,-4.004c-6.78,8.15 -3.905,7.658 -6.996,14.121Zm-84.421,43.016l-2.608,-5.121l5.504,1.496l-2.896,3.625Zm65.937,-42.2c-1.958,5.692 -0.2,-0.091 -6.629,5.529c-4.683,3.95 -4.246,2.359 -2.129,9.688c-8.892,-0.358 -2.696,-0.383 -9.396,4.787c-0.169,-3.482 -0.373,-6.963 -0.612,-10.441c-2.717,0.8 -5.546,1.458 -8.292,2.271c-0.468,2.278 -0.869,4.569 -1.204,6.87c-6.6,-1.916 -8.929,2.396 -14.417,9.296c0.079,-0.037 0.188,0.104 0.25,0.071c-0.184,0.096 -0.368,0.191 -0.554,0.283c-1.929,2.35 -4.162,5.055 -7.079,7.909c2.817,-7.692 -2.175,-3.192 7.079,-7.909c0.121,-0.062 0.183,-0.287 0.304,-0.354c-9.566,-3.529 -15.758,-0.962 -13.729,5.042c-8.225,-0.696 -1.904,3.125 -8.158,-2.096c-19.292,12.371 -14.996,8.617 -25.767,23.683l-0.504,-10.3l-9.375,4.78c-2.357,3.2 -4.645,6.451 -6.863,9.75c-2.217,3.298 -32.741,13.75 -39.275,15.712c-0.625,1.883 -1.325,3.608 -2.029,5.333c2.746,0.75 5.509,1.496 8.254,2.25c1.505,1.384 2.992,2.771 4.421,4c0.717,-5.45 0,-3.52 -1.558,-7.612c4.683,-2.192 10.479,-3.383 10.4,-7.45c6.254,1.896 2.967,1.225 8.05,6.454c15.612,-13.037 7.437,-10.042 25.25,-10.712c-2.279,-2.942 -4.654,-6.034 -7.029,-9.125c17.475,5.758 18.925,-5.342 27.658,-1.384c1.629,-6.5 1.046,-1.512 -2.396,-9.341c12.221,2.183 40.359,-16.459 42.829,-13.413c2.096,-4.392 1.134,-7.812 3.23,-12.204c0.112,9.525 28.8,-7.05 38.041,-8.825c-0.483,-2.492 -1.037,-5.142 -1.525,-7.633c-2.441,-1.688 -4.804,-3.221 -7.246,-4.909Zm-201.575,100.754c-0.062,1.4 -0.145,2.813 -0.183,4.196c1.029,0.067 1.979,-0.029 2.925,-0.121c0.296,-0.341 0.525,-0.85 0.846,-1.212c-1.846,-2.971 1.721,-1.267 -3.588,-2.863Zm771.613,-378.295c-0,-1.567 0.067,-2.971 0.15,-4.38l1.842,-0.941c-0.655,1.704 -1.371,3.437 -1.992,5.321Zm-92.825,45.145l-0.871,-1.708l3.904,-6.292l-3.033,8Zm-29.133,16.996c-0.25,-2.025 -0.484,-4.058 -0.734,-6.079l6.342,3.217l-5.608,2.862Zm-5.63,2.863c-0.041,-1.542 0.042,-2.95 0.121,-4.363l1.875,-0.954c-0.7,1.725 -1.404,3.454 -1.996,5.317Zm-35.541,13.808l-1.738,-3.412c3.3,2.225 2.079,-0.475 1.738,3.412Zm184.196,-102.45c3.133,4.463 3.77,6.679 1.437,12.171c1.129,-6.638 -1.454,-2.392 -7.35,-0.558c2.192,-1.9 4.433,-3.63 6.629,-5.53c-1.175,-0.77 -2.362,-1.533 -3.629,-2.45c-11.446,7.005 -4.758,4.38 -10.504,11.805c0.067,-1.405 0.071,-2.971 0.104,-4.359c-7.808,-1.687 -4.079,7.359 -9.242,0.409l-3,7.983c-7.191,5.425 -2.329,4.508 -10.108,-1.3c-10.887,4.958 -7.204,4.254 -17.687,7.054c-1.088,4.075 -2.175,8.146 -3.23,12.204c5.263,-1.704 0.2,-2.058 6.496,-1.158c-12.321,6.279 -5.821,-1.925 -17.762,6.9c1.337,-2.05 2.579,-4.25 3.883,-6.283c0.067,-1.405 0.15,-2.813 0.138,-4.371c-2.113,0.491 -4.288,0.816 -6.4,1.308c-6.95,8.817 -19.28,13.733 -35.663,18.171c3.913,4.654 4.004,6.367 -0.471,12.95c0.421,-3.738 0.888,-7.492 1.263,-11.396c-7.95,4.246 -8.975,0.658 -9.529,9.154l-2.53,-4.966c-18.287,21.045 -40.362,22.32 -63.137,38.425c0.4,-2.355 0.783,-4.7 1.204,-6.871c-4.837,4.464 -9.621,8.987 -14.35,13.566c-0.962,-0.095 -7.767,-0.537 -4.754,4.575l-13.65,-3.604c-1.021,1.15 -1.977,2.356 -2.863,3.613c6.25,0.921 1.205,0.558 6.4,-1.309c-1.641,2.988 -3.279,5.975 -4.891,8.946c-0.234,-2.033 -0.484,-4.054 -0.717,-6.087c-9.233,9.008 0.704,6.287 -10.683,16.196c1.487,1.391 2.991,2.775 4.404,4.012c6.629,-5.725 20.658,-14.633 21.712,-13.021c5.98,-5.583 2.863,-6.146 2.18,-9.708l7.5,-3.825c-1.246,5.721 -0.388,3.912 -4.892,8.946c7.225,2.575 5.167,0.104 15.642,-1.713c-7.905,-5.746 -0.463,-3.283 -1.375,-12.008l3.737,-1.904l4.271,8.383c7.212,-5.046 7.387,-4.546 5.992,-11.462c9.554,-3.696 36.912,-0.43 41.304,-21.046l1.858,-0.946c-0.15,2.812 -0.187,5.762 -0.333,8.575c8.083,-3.138 1.979,-3.354 8.371,-2.113c-0.905,-5.6 -0.767,-2.541 -5.292,-5.708c12.225,-2.712 12.487,-4.996 24.058,-3.854c0.704,-1.725 1.375,-3.438 2.075,-5.163c4.663,-10.2 1.95,-3.537 15.034,-7.662c-2.46,-0.252 -4.926,-0.429 -7.396,-0.529c11.891,-5.667 28.796,-10.959 39.062,-11.496c0.454,-3.75 0.921,-7.508 1.342,-11.242c18.383,2.167 41.087,-22.891 53.092,-16.496c3.229,-6.533 3.454,-3.908 0.466,-12.945c2.442,1.687 4.804,3.22 7.246,4.908c0.896,-6.904 -2.942,-5.929 -5.033,-14.442c-3.5,2.371 -6.95,4.909 -10.429,7.271Zm-742.213,380.325l1.863,-0.95c-1.475,-1.4 -2.888,-2.633 -4.392,-4.017c-0.067,1.4 -0.15,2.813 -0.217,4.213c0.938,0.308 1.888,0.604 2.746,0.754Zm874.767,-454.121c-9.763,7.317 -8.071,6.459 -18.771,9.563c2.946,6.125 2.687,1.366 -0.333,8.575c-0.25,-2.021 -0.409,-3.9 -0.659,-5.921c-9.216,7.042 -9.746,8.875 -18.766,9.562c-2.025,3.767 -3.984,7.7 -5.975,11.45l3.479,6.834c6.379,-2.275 9.546,-2.913 14.133,-9.354c3.833,-4.884 1.067,-0.738 -2.612,-5.121c8.958,1.104 5.383,-0.396 9.962,5.679c10.013,-12.533 12.767,-20.388 19.392,-26.892c-0,-1.562 0.066,-2.966 0.15,-4.375Zm-941.442,490.242l7.504,-3.821c-4.541,6.029 -0.066,3.55 -7.504,3.821Zm-9.271,0.425l1.892,-0.967c1.492,1.392 2.996,2.775 4.487,4.167c-5.379,-1.167 -1.379,0.704 -6.379,-3.2Zm57.179,-26.983c-3.908,1.795 -0.408,0.012 -2.029,5.333l1.742,3.417c-2.718,-2.185 -5.414,-4.396 -8.088,-6.634l-9.375,4.775c2.125,1.067 4.25,2.138 6.346,3.221c-9.783,2.638 -4.762,-0.117 -11.237,5.725c0.421,-3.733 0.887,-7.492 1.341,-11.242c-2.32,3.53 -4.816,6.95 -6.812,10.313c0.192,0.296 0.487,0.729 0.833,1.137c-0.541,0.084 -1.054,0.15 -1.679,0.075c-1.796,3.067 -3.092,6.075 -3.208,8.871c-7.142,-3.204 -5.225,-4.766 -10.984,-3.008c-4.991,-1.367 -8.304,0.712 -15.687,1.737c-0.946,12.213 2.408,7.184 -3.367,16.575c-7.954,-4.158 -2.508,-5.954 -8.083,-6.633l-5.429,-1.342c-2.867,3.613 -5.842,7.084 -8.704,10.692c-1.746,-1.846 -3.55,-3.858 -5.292,-5.708c-1.175,4.704 -1.829,4.646 -4.971,8.787c6.713,2.642 5.158,0.892 6.346,3.221c5.204,2.625 32.804,-7.917 54.096,-18.962l0.046,-0.025l-0.046,0.025c14.396,-7.534 25.946,-15.175 25.583,-19.488c6.729,2.825 3.396,2.571 8.267,2.242c3.712,-4.629 3.733,0.05 3,-7.984c4.562,-3.304 3.466,-0.395 5.762,-7.237c-6.662,0.071 -2.466,-0.696 -8.371,2.117Zm-101.316,51.62c-16.75,-0.458 -20.159,14.767 -30.692,9.384c-1.637,1.421 -3.212,3.004 -4.742,4.566l5.142,10.088c1.463,-0.158 3.033,-0.175 4.604,-0.196l-4.35,-8.537c6.375,2.62 1.275,-0.259 5.359,5.875c3.4,-6.817 3.783,0.22 3.012,-7.988c4.275,2.904 5.775,-0.204 2.613,5.121l0.87,1.708c7.425,-7.304 4.805,-2.254 2.175,-9.712c9.242,-0.409 3.755,-1.521 7.2,4.933c8.425,-3.508 8.3,-5.204 14.821,-3.446c6.829,-11.691 -3.879,-4.279 8.704,-10.691c-6.029,-2.596 -12.087,-5.18 -18.116,-7.78l3.4,6.675Zm-219.338,107.655c2.129,-0.496 4.288,-0.817 6.417,-1.313l2.104,-5.179c-2.192,0.333 -4.4,0.675 -6.525,1.175l-1.996,5.317Zm125.709,-64.05c0.941,-4.784 0.112,-3.384 -0.721,-6.088c0.237,2.029 0.487,4.054 0.721,6.088Zm571.733,-302.067c0.567,2.642 1.037,5.137 1.604,7.783c0.892,-4.95 3.217,-4.375 -1.604,-7.783Zm-615.75,322.342c1.558,-1.575 3.133,-3.159 4.771,-4.584c-5.059,-3.871 -0.95,-2.054 -6.375,-3.2c1.187,0.763 2.441,1.688 3.629,2.45l-7.396,-0.533c1.821,2.004 3.546,3.862 5.371,5.867Zm1205.8,-620.838c-10.558,3.033 -9.763,3.213 -6.738,9.883c-1.4,2.084 -37.133,13.059 -38.27,13.05c-1.38,4.809 -23.43,25.821 -30.659,32.63c1.175,0.77 2.442,1.691 3.617,2.462c-1.021,1.104 -1.958,2.363 -2.896,3.625c13.946,-11.017 14.204,-11.933 22.788,-20.217c-0.7,1.725 -1.325,3.609 -1.996,5.317c7.216,-6.608 6.396,-4.233 5.125,-13.167c16.387,-5.416 19.504,-6.808 29.637,-6.691c2.238,-6.225 2.979,-2.892 1.388,-11.267l3.721,-1.896c0.25,2.025 0.45,3.875 0.683,5.909c6.767,-0.517 13.508,-8.055 20.846,-14.725c3.904,3.483 2.891,-2.259 5.758,-7.238c-5.542,-0.108 -11.05,-0.042 -16.592,-0.15c1.255,0.925 2.446,1.688 3.588,2.475Zm-328.371,167.313c2.288,-3.905 0.138,-2.417 0.138,-4.371c0.012,1.558 -0.071,2.966 -0.138,4.371Zm-621.975,314.762l-0.871,-1.708l-5.608,2.858c5.992,2.029 0.162,0.896 6.479,-1.15Zm973.9,-496.229c-1.233,-0.782 -2.443,-1.599 -3.629,-2.45l1.737,3.417c-8.654,3.433 -7.412,1.037 -5.762,7.233l-3.763,1.921c11.638,1.5 15.367,-4.704 18.917,-13.942l11.854,4.717l-1.741,-3.417c0.941,-1.258 1.958,-2.367 2.866,-3.612c-10.154,-4.213 -12.846,-2.642 -20.479,6.133Zm-825.654,420.696l-5.479,-1.513c1.475,1.4 2.966,2.792 4.471,4.175c0.304,-0.937 0.704,-1.725 1.008,-2.662Zm-18.771,9.562c0.704,-1.725 1.404,-3.454 2.025,-5.333l-4.383,2.233c-0.079,0.451 -0.185,0.896 -0.317,1.334l2.675,1.766Zm868.167,-448.608l-4.134,10.512c3.93,-6.5 3.2,1.3 5.355,5.875c7.262,-10.35 7.641,-7.804 4.387,-19.245l-5.608,2.858Zm-105.096,53.55c0.171,1.867 0.421,3.892 0.654,5.921c5.021,-6.467 2.829,-0.075 3.079,-7.825l-3.733,1.904Zm-131.354,66.925c-0.063,1.4 -0.146,2.812 -0.213,4.212c2.825,-0.658 5.654,-1.312 8.371,-2.112l-2.529,-4.967l-5.629,2.867Zm-66.9,40.346c2.908,-2.071 5.691,-4.271 8.521,-6.496l-5.425,-1.338l-2.946,3.455c-0.004,1.566 -0.071,2.966 -0.15,4.379Zm-518.542,257.954l3.4,6.671c1.542,-1.567 3.183,-2.988 4.754,-4.571c-2.758,-0.746 -5.504,-1.496 -8.154,-2.1Zm-75.075,38.25c5.821,2.117 5.896,1.687 13.796,-0.771l-4.633,0.208c1.512,-6.833 -6.042,-0.245 -9.163,0.563Zm824.783,-422.4l9.163,-0.563l-0.788,-1.55c-2.829,0.659 -5.625,1.3 -8.375,2.113Zm-76.291,45.129c0.396,-0.787 0.7,-1.725 1.021,-2.667l-5.43,-1.341c-0.395,0.787 -0.7,1.725 -1.02,2.671l0.791,1.55l4.638,-0.213Zm-30.679,9.375c-0.08,1.408 -0.146,2.813 -0.23,4.225c3.146,-0.037 6.209,-0.229 9.275,-0.425c-6.295,-2.658 -3.162,-3.671 -9.045,-3.8Zm-623.209,321.65l5.654,-2.883l-7.316,-0.379l1.662,3.262Zm-33.879,21.563c-0.229,-5.359 -1.762,-0.863 1.996,-5.321c-1.808,-0.446 -3.617,-0.892 -5.396,-1.354c-1.017,1.104 -1.954,2.366 -2.896,3.625c4.934,3.741 0.967,2.05 6.296,3.05Zm-113.45,55.654l1.846,-0.942c-1.508,-1.383 -2.888,-2.633 -4.375,-4.025l2.529,4.967Zm861.638,-447.434c-1.017,1.105 -1.971,2.371 -2.913,3.634l5.442,1.333c1.608,-1.404 3.183,-2.987 4.821,-4.412c-2.509,-0.284 -4.95,-0.409 -7.35,-0.555Zm-910.092,463.717c4.137,-0.154 1.254,1.313 3.733,-1.904l-3.733,1.904Zm-54.417,27.725c-0.783,3.138 -1.441,6.404 -2.225,9.542c5.421,-6.871 3.104,-5.1 2.225,-9.542Zm-281.587,147.779c-6.704,6.154 -5.559,3.809 -5.992,11.459l7.65,-8.2c0.371,-2.338 0.85,-4.538 1.188,-6.863c-2.159,0.317 -4.35,0.654 -6.48,1.15c1.175,0.771 2.363,1.533 3.634,2.454Zm274.958,-142.25l5.608,-2.858c-1.887,-0.604 -3.666,-1.067 -5.475,-1.513c-0.066,1.405 -0.15,2.813 -0.133,4.371Zm-286.962,141.913l-2.896,3.625c1.729,1.858 3.55,3.862 5.275,5.721c1.2,-5.5 2.075,-5.163 -2.379,-9.346Zm139.87,-73.421c-0.079,1.412 -0.066,2.971 -0.15,4.379l3.767,-1.917c-1.175,-0.77 -2.442,-1.691 -3.617,-2.462Zm-41.3,21.046l-7.504,3.821c2.829,-0.659 5.575,-1.471 8.371,-2.113l-0.867,-1.708Zm540.571,-279.738l-3.766,1.921c4.12,-0.146 1.366,1.454 3.766,-1.921Zm-349.179,182.217c2.3,-3.908 0.15,-2.421 0.15,-4.375c-0.004,1.562 -0.071,2.967 -0.15,4.375Zm-33.037,23.287c6.966,-6.091 4.12,-4.25 14.162,-9.366c-8.596,-2.659 -7.279,0.579 -10.979,-3.009l-0.992,0.505l-2.708,1.966c0.15,3.246 0.3,6.492 0.517,9.904Zm1103.87,-551.891c0.063,-1.4 0.146,-2.813 0.134,-4.367l1.891,-0.967c-0.625,1.884 -1.325,3.609 -2.025,5.334Zm7.775,-8.263l0.159,0.313c1.141,0.787 2.175,1.433 3.333,2.212c-4.546,-1.791 -2.904,-0.871 -3.333,-2.212c-0.113,-0.142 -0.188,-0.1 -0.3,-0.242l0.141,-0.071c-0.258,-0.588 -0.598,-1.138 -1.008,-1.633c-4.596,1.75 -9.313,3.375 -13.904,5.125c3.966,5.604 1.441,3.175 0.504,10.3c11.15,-0.792 11.317,-5.567 25.25,-10.713c-0.908,-8.333 -4.017,-3.82 1.308,-11.42c1.304,3.637 -1.946,2.166 1.738,3.416c-1.579,6.475 7.533,0.071 12.975,-2.312c1.729,-5.767 1.471,-0.942 -2.609,-5.121l26.271,-13.383c-2.954,-1.234 -6.029,-2.6 -9.029,-3.809c9.467,-3.258 9.208,-2.541 18.633,-5.191l1.159,-7.042c-4.954,-0.408 -9.825,-0.667 -14.746,-1.092c-0.804,16.246 -35.563,32.588 -46.542,42.875Zm0.375,-12.9l-0.871,-1.708l-7.395,-0.529l6.375,3.2l1.891,-0.963Zm-1074.09,540.825c0.912,3.25 1.7,6.367 2.504,9.475c2.083,-0.471 4.287,-0.816 6.479,-1.15l-8.983,-8.325Zm1140.12,-582.879c1.85,12.942 -5.221,1.292 0.354,14.679l5.658,-2.879c0.892,-1.237 1.846,-2.508 2.85,-3.604c-1.175,-0.771 -2.429,-1.696 -3.617,-2.458c-0.825,-5.446 -0.512,-3.455 -5.245,-5.738Zm-651.142,331.775l-3.767,1.921c4.059,-0.308 1.288,1.3 3.767,-1.921Zm-426.583,234.367c5.5,0.912 5.716,-0.959 12.941,-2.492c-0.736,-4.568 -1.5,-9.132 -2.291,-13.692c-4.593,0.173 -9.183,0.425 -13.767,0.759c-2.958,5.612 -0.283,1.321 -4.85,4.429c4.05,4.192 13.625,0.683 7.967,10.996Zm-90.663,35.441c5.379,1.167 1.396,-0.712 6.375,3.2c4.838,-2.266 2.108,-1.266 8.371,-2.112c-5.146,-5.396 -7.779,-7.767 -11.863,-8.033c-0.695,0.55 -1.325,1.262 -2.037,1.82c-0.296,1.717 -0.55,3.409 -0.846,5.125Zm582.042,-304.975l2.533,4.967c-0.496,-5.029 3.646,-5.179 -2.533,-4.967Zm284.991,-141.104l1.892,-0.962c-1.425,-1.229 -2.917,-2.621 -4.421,-4.004l2.529,4.966Zm-1008.42,511.859c2.179,-4.042 0.137,-2.417 0.137,-4.371c-0.066,1.404 -0.15,2.812 -0.137,4.371Zm90.2,-50.259l-1.863,0.946c-3.7,9.708 0.384,5.088 2.246,13.717c2.592,-2.688 5.058,-5.509 7.65,-8.2c-3.033,-7.838 -0.575,-7.917 -7.029,-9.125c-0.15,2.812 -0.217,5.779 -0.333,8.575c-0.159,-1.875 -0.438,-3.884 -0.671,-5.913Zm1229.69,-643.571c2.125,1.071 4.25,2.138 6.3,3.05c-4.091,-3.583 1.067,-2.695 -6.3,-3.05Zm121.088,-63.845c3.621,0.891 7.316,1.941 10.904,2.854c-20.117,2.816 -24.017,12.821 -38.296,17.554c-1.529,5.667 2.296,5.087 -1.371,11.258c10.884,2.667 31.929,-27.025 45.909,-21.241c2.233,-10.33 -1.459,-6.688 7.787,-12.571c-11.583,-4.263 -9.975,-1.759 -24.933,2.146Zm-10.246,3.07c-0.267,-0.254 -0.488,-0.533 -0.658,-0.641c-0.185,-0.049 -0.382,-0.02 -0.546,0.079c0.391,0.192 0.754,0.4 1.204,0.562Zm125.342,-78.725c4.137,-0.154 1.366,1.455 3.766,-1.916l-3.766,1.916Zm26.754,-26.341c0.266,2.016 0.437,3.883 0.671,5.916c2.18,-0.299 4.347,-0.685 6.495,-1.158c-2.875,-6.946 -1.55,-1.167 -1.525,-7.633l-5.641,2.875Zm122.729,-83.842l-3.733,1.9c-0.067,1.404 -0.15,2.813 -0.138,4.371c4.475,-5.017 2.25,-1.142 3.871,-6.271Zm1.158,-7.042l-1.158,7.042c2.208,-0.342 4.321,-0.833 6.529,-1.175c-3.85,-6.254 0.55,-2.825 -5.371,-5.867Zm189.75,-128.554c0.942,-1.262 1.959,-2.366 2.9,-3.625c1.571,-0.021 3.063,-0.196 4.634,-0.212l-8.267,-2.242c0.25,2.025 0.483,4.054 0.733,6.079Zm337.15,-358.896c2.579,-4.245 6.5,-4.483 1.517,-6.833c-0.092,0.242 -0.246,0.321 -0.417,0.408c-0.375,2.142 -0.729,4.28 -1.1,6.425Zm-2677.19,1351.39l-3.767,1.921c4.137,-0.154 1.287,1.296 3.767,-1.921Zm-9.605,9l2.105,-5.179l-3.767,1.921l1.662,3.258Zm-2.9,3.629l-1.658,-3.258l-3.733,1.9c1.808,0.446 3.616,0.896 5.391,1.358Zm-57.191,-47.308c4.171,-0.167 1.287,1.3 3.766,-1.917l-3.766,1.917Zm2865.74,-1524.1c1.609,-4.925 4.013,-2.242 -0.654,-5.925c0.25,2.025 0.484,4.054 0.654,5.925Zm-2909.27,1480.39l-2.613,-5.12l-5.625,2.866c0.25,2.021 0.483,4.054 0.733,6.075c0.942,-1.258 1.88,-2.516 2.9,-3.625c1.492,-0.171 3.063,-0.191 4.605,-0.196Zm-20.259,-25.85c-2.191,0.338 -4.366,0.663 -6.479,1.155c5.1,1.7 0.554,1.279 7.35,0.554l-0.871,-1.709Zm-8.508,6.488l1.875,-0.958c-1.488,-1.392 -2.996,-2.775 -4.483,-4.167l2.608,5.125Zm5.029,-13.317c-0.387,2.346 -0.771,4.696 -1.125,7.029c2.638,-4.475 6.842,-4.466 1.125,-7.029Zm-5.612,2.859c-0.08,1.412 -0.067,2.97 -0.15,4.379l3.766,-1.917c-1.175,-0.771 -2.441,-1.692 -3.616,-2.462Zm2833.7,-1454.79l0.425,0.371c0.154,-0.275 0.091,-0.242 -0.425,-0.371Zm-2840.45,1436.92c-1.884,5.454 0.3,2.191 -5.792,7.25l0.871,1.708l3.767,-1.921c1.808,0.45 3.695,1.05 5.504,1.5c0.054,-1.396 0.041,-2.954 0.121,-4.366l1.158,-7.038l-5.629,2.867Zm-189.017,-454.463c0.013,1.559 -0.071,2.967 -0.137,4.371c1.175,0.771 2.441,1.688 3.616,2.458c0.909,-1.241 1.925,-2.35 2.863,-3.608c-0.184,-1.667 -0.4,-3.317 -0.617,-4.967l-2.346,0.025l-3.379,1.721Zm-0.875,-1.708l-3.762,1.921c4.137,-0.154 1.366,1.454 3.766,-1.921l-0.004,-0Zm-8.033,-6.463l-7.5,3.821c1.187,0.767 2.441,1.692 3.629,2.454c1.292,-2.025 2.55,-4.233 3.871,-6.275Zm-4.484,-4.166c-0.004,1.566 -0.07,2.971 -0.154,4.379l3.767,-1.917c-1.175,-0.771 -2.363,-1.537 -3.617,-2.462l0.004,-0Zm3065.31,-951.45c-9.85,-3.975 -13.421,-10.563 -22.029,-18.3c-0.109,0.25 -0.321,0.75 -0.359,2.137l-1.737,-3.416c0.779,0.579 1.279,0.716 1.671,0.908c-3.042,-2.702 -6.288,-5.167 -9.709,-7.371c12.434,-4.183 16.867,5.092 25.784,-0.429c1.225,8.762 3.104,2.721 -2.242,9.55l9.379,-4.779c3.563,5.421 7.029,10.691 10.513,15.958c-8.379,1.142 -4.359,-0.125 -11.271,5.742Zm-39.408,-30.954c2.191,-0.334 4.32,-0.83 6.512,-1.163c-5.371,3.908 -0.412,2.946 -6.512,1.163Zm-34.025,100.237c-0.938,1.263 -1.913,2.342 -2.85,3.604l-3.63,-2.454l1.021,-2.671c1.571,-0.016 3.096,-0.012 4.588,-0.187l0.871,1.708Zm-13.113,6.683c0.083,-1.412 0.15,-2.816 0.138,-4.37l1.858,-0.95c-0.625,1.883 -1.292,3.591 -1.996,5.32Zm-15.875,5.934l0.188,-4.196l1.887,-0.967c-0.7,1.729 -1.4,3.454 -2.075,5.163Zm-66.7,-14.892c0.083,-1.412 0.15,-2.812 0.154,-4.379c0.079,2.308 2.292,0.592 -0.154,4.379Zm66.946,187.021c0.854,-6.104 0.646,-1.113 -0.671,-5.917l1.875,-0.954c0.513,5.408 2.825,0.713 -1.204,6.871Zm-357.413,-636.521c-31.466,-7.425 -54.737,-49.333 -84.229,-39.979c1.021,-2.671 2.042,-5.342 3.046,-8.004c-11.312,2.05 -7.383,1.025 -18.479,0.812c-4.742,-4.816 -0.188,-3.812 -4.271,-8.379c10.588,-1.292 104.05,27.925 115.458,41.079c0,0 -3.8,9.363 -11.525,14.471Zm2.73,0.763c5.3,1.012 1.3,-0.859 6.295,3.045c-2.125,-1.066 -4.17,-1.979 -6.295,-3.045Zm-60.759,-26.521l-2.608,-5.125l1.846,-0.938c0.279,2.004 0.512,4.038 0.762,6.059l0,0.004Zm-50.691,-25.204l-2.613,-5.125c2.142,1.062 4.25,2.137 6.392,3.2l-3.779,1.925Zm365.658,740.829c1.017,-1.109 1.958,-2.367 2.896,-3.629l5.612,-2.859c-2.321,5.484 -1.7,5.559 -8.508,6.488Zm-379.021,-753.179c-3.842,5.866 -0.287,2.883 -7.5,3.82l7.5,-3.82Zm173.488,1013.14l-1.888,0.963c-0.471,-2.496 -1.037,-5.142 -1.512,-7.638c0.858,0.15 1.808,0.446 2.745,0.754c0.171,1.867 0.405,3.896 0.655,5.921Zm-7.5,3.821l-1.738,-3.412c3.283,2.233 2.079,-0.475 1.738,3.412Zm0.72,6.088c0.08,-1.413 0.067,-2.971 0.15,-4.38c0.08,2.305 2.246,0.421 -0.15,4.38Zm-6.479,1.15l-3.483,-6.83c1.808,2.013 3.55,3.863 5.358,5.875l-1.875,0.955Zm-6.633,5.529c-3.242,-0.304 -1.033,-2.6 -6.496,1.162c0.354,-2.333 0.738,-4.683 1.125,-7.029c2.825,-0.658 5.654,-1.317 8.371,-2.112l-3,7.979Zm-1.021,2.671c2.129,-0.496 4.321,-0.834 6.496,-1.159c-5.354,3.9 -0.379,2.929 -6.496,1.159Zm-31.242,22.175c-5.887,-2.475 -2.604,-0.63 -5.291,-5.713c1.825,0.442 3.633,0.888 5.521,1.492c-0.08,1.408 -0.146,2.808 -0.23,4.221Zm-7.25,22.854l-7.504,3.825c-1.104,-3.742 -2.175,-7.3 -3.296,-11.029c-4.533,3.091 -3.529,2.383 -7.637,8.191c-0.342,-6.079 -0.55,-4.412 -4.467,-4.175c-0.641,-7.883 0.454,-3.554 6.629,-5.529c1.05,-6.792 0.788,-2.554 -2.379,-9.346c8.529,1.717 8.717,3.771 13.513,7.975c-3.067,0.192 -6.129,0.388 -9.242,0.409c4.775,3.237 9.579,6.458 14.383,9.679Zm-11.42,10.121l-1.738,-3.417c3.3,2.229 2.096,-0.479 1.738,3.417Zm-13.359,-12.355c-5.308,1.925 -12.071,8.5 -8.887,15.088c-8.45,-3.517 -3.984,-9.117 -5.784,-16.021c4.667,-0.225 3.905,-0.421 6.45,-1.329c-1.189,-0.759 -2.373,-1.524 -3.554,-2.296c1.496,-0.175 3.034,-0.175 4.609,-0.196c0.937,-1.258 1.875,-2.521 2.895,-3.625l4.271,8.379Zm0.096,23.413c-5.946,-2.054 -4.133,-2.975 -8.117,-6.617l8.421,-2.137c-0.087,2.975 -0.233,5.787 -0.304,8.754Zm-4.742,4.567c-5.975,-0.28 -11.004,1.504 -17.762,6.9c3.183,-8.463 2.867,-9.088 7.758,-12.555l-1.741,-3.412l8.266,2.237l3.479,6.83Zm-26.516,-5.65c-5.842,-2.3 -1.496,-0.213 -4.5,-4.159c-1.959,2.367 -3.804,4.871 -5.763,7.238l-4.35,-8.538l5.625,-2.866c4.013,1.67 7.95,3.187 11.854,4.716c-4.408,1.659 -1.829,-0.633 -2.866,3.609Zm5.858,16.175c-15.171,17.508 -44.112,19.937 -48.525,43.887l-8.983,-8.325l3.341,11.2c-8.704,-4.558 -2.35,-5.842 -10.112,-1.3c-4.863,-10.429 2.408,-4.746 -8.875,-8.187c8.054,-3.125 2.617,-1.725 11.008,-1.5l-3.4,-6.675c4.017,0.104 8.017,0.216 12,0.337c-1.479,-8.046 -3.562,-2.096 3.034,-8c-6.359,-1.058 -1.234,-0.542 -6.513,1.167c-1.231,-0.776 -2.432,-1.598 -3.6,-2.467c4.367,-0.662 8.688,-1.492 12.975,-2.308c-1.712,-4.017 -1.487,-5.304 -1.412,-11.013c-0.638,-0.066 -1.45,-0.237 -2.196,-0.25c-2.4,1.421 0.916,1.492 -4.275,0.421c1.418,-0.2 2.845,-0.341 4.275,-0.421c0.496,-0.254 1.196,-0.412 2.233,-0.746c0.004,0.388 -0.025,0.6 -0.037,0.996c8.212,0.9 11.637,6.975 13.416,11.346c3.871,-6.271 7.788,-12.567 11.659,-18.842c1.57,-0.02 3.141,-0.037 4.637,-0.212l-3.904,6.292c2.746,0.75 5.508,1.491 8.254,2.245c-4.262,-1.35 -0.683,-1.608 2.863,-3.608l-4.35,-8.537c2.762,0.741 5.508,1.495 8.266,2.237l-4.271,-8.379l1.846,-0.942c8.5,2.121 5.534,1.284 10.646,11.584Zm-80.904,22.062c3.055,-0.178 6.109,-0.365 9.162,-0.562l0.871,1.708c-3.771,3.483 -7.571,6.792 -11.416,10.121c0.466,-3.759 0.916,-7.509 1.383,-11.267Zm10.217,-3.054l3.766,-1.917c1.188,0.763 2.363,1.534 3.55,2.296l-3.916,6.296c-2.05,-7.363 1.858,-1.338 -3.4,-6.675Zm14.162,-9.367c-5.367,3.909 -0.412,2.946 -6.508,1.167c2.112,-0.488 4.316,-0.833 6.508,-1.167Zm14.421,-18.1l1.858,-0.946c-0.621,1.88 -1.291,3.592 -1.996,5.317c0.067,-1.404 0.15,-2.812 0.138,-4.371Zm11.1,-1.354c-1.925,2.35 -3.804,4.871 -5.763,7.238c-0.062,-5.834 -0.075,-3.484 -1.604,-7.788c2.525,0.279 4.954,0.413 7.367,0.55Zm7.533,-3.837c1.779,0.462 3.667,1.062 5.475,1.512c-0.704,1.725 -1.404,3.45 -1.996,5.317l-1.891,0.962c-0.55,-6.562 -0.167,-3.433 -1.588,-7.791Zm16.129,-14.671l1.875,-0.954c-0.625,1.879 -1.325,3.608 -1.995,5.316c0.079,-1.408 0.116,-2.796 0.12,-4.362Zm10.142,1.283c5.038,5.254 -2.3,4.496 3.479,6.833l0.792,1.55c-2.75,0.813 -5.575,1.471 -8.325,2.288c1.325,-3.608 2.729,-7.063 4.054,-10.671Zm-0.4,-14.654c2.058,2.471 4.1,4.95 6.158,7.417c-1.187,-0.763 -2.362,-1.534 -3.55,-2.296c-1.016,1.108 -1.958,2.366 -2.975,3.471c0.15,-2.813 0.217,-5.78 0.367,-8.592Zm-74.542,99.571l-2.533,-4.967c1.808,0.446 3.621,0.892 5.508,1.496c-1.02,1.104 -1.958,2.362 -2.975,3.471Zm-28.3,-4.546c-3.312,-3.396 -6.545,-6.638 -9.858,-10.033c3.079,1.362 6.058,2.583 9.138,3.945c0.233,2.034 0.483,4.055 0.72,6.088Zm-15.254,-11.392c0.909,-1.241 1.846,-2.504 2.867,-3.608l1.892,-0.967c-2.234,4.854 1.475,3.746 -4.759,4.575Zm0.354,14.679c0.705,-3.291 1.488,-6.429 2.175,-9.712l1.846,-0.938c-0.629,8.725 1.709,3.234 -4.021,10.65Zm-8.354,2.109c0.067,-1.404 0.05,-2.963 0.134,-4.371l1.891,-0.963c-0.716,1.734 -1.341,3.613 -2.025,5.334Zm-10.129,-1.296c0.083,-1.408 0.15,-2.808 0.15,-4.375c0.179,2.45 2.292,0.592 -0.15,4.375Zm-4.737,4.571c2.158,-0.321 4.287,-0.821 6.479,-1.154c-5.371,3.908 -0.413,2.945 -6.479,1.154Zm-9.396,4.783c-0.234,-2.029 -0.484,-4.054 -0.717,-6.083l7.5,-3.825c-2.275,3.312 -4.537,6.612 -6.783,9.908Zm2.475,9.492c-0.25,-2.021 -0.484,-4.054 -0.734,-6.075c3.671,3.408 1.409,1.041 0.734,6.075Zm-3.629,-2.45c-0.938,-0.304 -1.809,-0.446 -2.746,-0.75l-1.859,0.946c-0.179,-0.692 -0.195,-1.075 -0.312,-1.605c-1.117,-0.221 -2.22,-0.506 -3.304,-0.854c3.858,-0.012 3.104,-1.191 3.304,0.854c0.733,0.213 1.467,0.43 2.171,0.659l1.875,-0.959l0.871,1.709Zm-10.584,11.646l-7.5,3.825c-0.214,-1.971 -0.443,-3.941 -0.687,-5.909c1.191,0.763 2.362,1.534 3.633,2.45l3.767,-1.916l0.787,1.55Zm-1.154,7.041c-1.808,-0.446 -3.617,-0.891 -5.475,-1.512l7.5,-3.821c-0.621,1.883 -1.325,3.608 -2.025,5.333Zm-17.762,6.9l5.625,-2.866c-4.417,4.404 0.525,3.254 -5.625,2.866Zm-8.371,2.117c0.383,-2.35 0.85,-4.542 1.233,-6.888c1.463,-0.158 3.033,-0.175 4.604,-0.195c0.171,1.87 0.409,3.9 0.659,5.925c-2.1,0.479 -4.292,0.816 -6.496,1.158Zm-4.892,8.942c-2.992,-5.709 2.263,-0.955 -1.591,-7.792l5.474,1.512c-1.337,2.05 -2.545,4.23 -3.883,6.28Zm-7.246,-4.909l-2.533,-4.966l1.892,-0.963c0.233,2.029 0.483,4.054 0.641,5.929Zm-2.133,9.688l-4.271,-8.379c2.667,0.595 5.396,1.354 8.142,2.108c-1.321,2.042 -2.55,4.229 -3.871,6.271Zm-0.771,21.704c-3.529,2.383 -6.95,4.908 -10.396,7.45l-1.741,-3.417l-3.734,1.904c3.067,-5.666 -1.754,-3.212 4.755,-4.575c-0.25,-2.02 -0.484,-4.054 -0.734,-6.075c7.554,0.842 2.967,-4.641 11.133,-1.37c-0.616,3.05 -2.887,1.27 0.717,6.083Zm-24.158,-19.558l0.792,1.55c-6.288,2.033 -0.196,2.641 -6.4,1.308l5.608,-2.858Zm4.421,4.004c2.441,1.687 4.804,3.221 7.246,4.908c1.175,0.771 2.362,1.533 3.508,2.321c-1.146,-0.788 -2.333,-1.55 -3.508,-2.321c-5.484,-0.529 -4.613,3.133 -7.246,-4.908Zm-13.625,19.65c-3.354,1.125 -6.8,2.096 -10.184,3.233c-1.254,-0.925 -2.441,-1.687 -3.587,-2.475c6.158,-0.983 -0.175,-4.6 5.612,-2.858c1.696,-5.75 0.03,-4.121 -0.616,-10.438l5.658,-2.883c-0.171,5.562 0.067,9.937 3.117,15.421Zm-20.434,6.304l2.896,-3.625l1.875,-0.954c-2.262,4.866 1.496,3.733 -4.771,4.579Zm-4.466,-4.175l1.858,-0.946c-0.671,1.708 -1.292,3.592 -1.996,5.317c0.067,-1.4 0.071,-2.967 0.138,-4.371Zm1.604,7.787c-1.021,1.105 -1.958,2.367 -2.975,3.471c-1.188,-0.751 -2.363,-1.522 -3.525,-2.312c0.275,-0.921 0.596,-1.867 0.992,-2.654c1.491,-0.175 3.066,-0.196 4.637,-0.213l0.871,1.708Zm-15.233,11.867c-0.788,-3.117 -1.592,-6.229 -2.38,-9.346c3.034,-0.179 6.096,-0.371 9.238,-0.408c-2.275,3.312 -4.629,6.467 -6.858,9.754Zm-9.059,-3.792c0.084,-1.412 0.084,-2.975 0.15,-4.379l1.875,-0.954c-0.683,1.717 -1.308,3.6 -2.025,5.333Zm-18.371,24.217l-6.629,5.529c-0.25,-2.021 -0.483,-4.054 -0.733,-6.079c2.204,-0.342 4.317,-0.829 6.496,-1.158l0.866,1.708Zm-13.995,4.983c-0.234,-2.033 -0.484,-4.054 -0.717,-6.087l1.842,-0.938c-0.361,2.344 -0.736,4.686 -1.125,7.025Zm-2.896,3.625c-2.229,3.288 -4.504,6.596 -6.767,9.9c-1.642,-6.4 -3.071,-4.3 -8.954,-8.341c6.083,-1.929 7.771,-4.938 14.85,-3.267c-2.192,0.338 -4.288,0.817 -6.479,1.15c4.904,2.196 0.766,4.304 7.35,0.558Zm-22.638,15.838l-2.612,-5.121c5.379,1.167 1.379,-0.704 6.379,3.2l-3.767,1.921Zm-3.096,7.833c0.08,-1.412 0.146,-2.812 0.196,-4.208l1.875,-0.954c-0.7,1.725 -1.371,3.437 -2.071,5.162Zm-6.145,-7.429l-1.742,-3.412c3.225,2.07 2.05,-0.459 1.742,3.412Zm-2.23,9.542c-0.937,1.262 -1.875,2.525 -2.891,3.629c0.229,-4.225 0.362,-8.596 0.483,-12.958c0.788,3.12 1.621,6.212 2.408,9.329Zm0.221,19.05l1.892,-0.963c1.492,1.392 2.996,2.775 4.483,4.167l-9.375,4.779l-0.871,-1.708c4.505,-5.034 2.33,-0.988 3.871,-6.275Zm-13.512,-7.975c2.996,2.775 5.991,5.55 8.908,8.171l0.871,1.708c-4.392,3.8 -8.829,7.429 -13.263,11.058c1.125,-7.025 2.359,-13.912 3.484,-20.937Zm-13.734,24.008c-1.233,-0.782 -2.443,-1.599 -3.629,-2.45c1.959,-2.367 3.884,-4.717 5.842,-7.083l5.425,1.341l0.871,1.709c-7.05,3.787 -3.475,1.183 -8.509,6.483Zm-20.541,-17.1c3.033,-0.175 6.096,-0.371 9.241,-0.408c0.171,1.866 0.405,3.9 0.655,5.925c-7.921,-1.638 -1.88,2.129 -9.896,-5.517Zm9.641,14.25l-1.741,-3.417c3.179,2.096 2.05,-0.458 1.741,3.417Zm7.138,4.771l-1.996,5.317c-0.954,-0.296 -1.808,-0.45 -2.762,-0.746c0.083,-1.409 0.149,-2.813 0.149,-4.375l3.738,-1.904l0.871,1.708Zm-4.521,-27.417l1.875,-0.954l2.608,5.121c-1.887,-0.604 -3.695,-1.05 -5.504,-1.496c0.317,-0.946 0.7,-1.725 1.021,-2.671Zm9.913,5.509c5.991,2.029 -0.388,0.195 0.733,6.075c-7.163,-3.975 -2.204,-1.025 -5.142,-10.088c5.763,2.146 1.371,0.083 4.409,4.013Zm4.1,-10.496c3.033,-0.179 6.095,-0.371 9.237,-0.409l-3.762,1.917c1.187,0.763 2.362,1.533 3.55,2.296l-10.034,-1.142c0.304,-0.937 0.625,-1.883 1.008,-2.662Zm-20.879,42.508c-4.85,-4.962 -0.637,0.125 -2.412,-9.333c6.733,1.066 2.329,1.162 7.167,4.758c-4.784,3.217 -0.75,-0.4 -4.755,4.575Zm7.134,4.771l-1.659,-3.263c3.221,2.075 2.017,-0.637 1.659,3.263Zm-35.646,18.162c1.404,-3.454 2.729,-7.062 4.1,-10.495c3.962,-6.321 8.95,-3.588 13.108,-10.788l-2.575,-1.033c0.95,0.296 1.888,0.6 2.763,0.746c-0.029,0.208 -0.092,0.237 -0.188,0.287l9.275,3.683c-13.246,3.23 -18.221,8.109 -26.483,17.6Zm14.012,-4.991c0.084,-1.409 0.15,-2.813 0.23,-4.221l1.845,-0.942l-2.075,5.163Zm-7.52,-19.434l1.845,-0.941l2.53,4.971c-5.946,-1.863 -0.8,0.8 -4.375,-4.03Zm4.741,-4.566c2.442,0.125 4.871,0.254 7.367,0.55c-4.754,3.2 -0.754,-0.4 -4.838,4.416l-2.529,-4.966Zm2.146,-9.696c1.017,-1.104 1.954,-2.367 2.896,-3.625l1.875,-0.958c3.254,5.966 1.529,2.35 8.083,6.633c-3.65,0.496 -7.429,0.858 -11.112,1.367l-1.742,-3.417Zm-32.046,20.629c-0.237,-2.029 -0.487,-4.054 -0.721,-6.087l1.892,-0.963c0.496,5.421 2.888,0.879 -1.171,7.05Zm-0.471,12.95l-1.891,0.963c-0.859,-0.15 -1.792,-0.455 -2.746,-0.755c0.083,-1.408 0.15,-2.808 0.217,-4.212l3.779,-1.929c0.237,2.033 0.408,3.9 0.641,5.933Zm-11.62,-8.937l1.841,-0.942c1.509,1.383 2.996,2.775 4.488,4.167c-1.004,1.095 -1.959,2.366 -2.85,3.604l-3.479,-6.829Zm3.079,-7.83l-3.95,6.121c-1.504,-1.383 -2.934,-2.612 -4.421,-4.004c6.187,-0.612 3.621,-0.479 8.371,-2.117Zm-38.159,36.455c2.663,-8.984 2.059,-1.246 -4.216,-12.909c0.954,0.296 1.891,0.604 2.762,0.746c6.763,0.854 -1.2,3.542 9.092,3.971c-2.607,2.673 -5.154,5.404 -7.638,8.192Zm-3.966,6.129c1.27,0.916 2.441,1.683 3.633,2.45c-6.538,3.916 -1.204,2.958 -7.396,-0.534l3.763,-1.916Zm-18.284,-3.396c3.384,0.429 6.763,0.858 10.113,1.3c-8.3,1.296 -3.875,1.975 -10.113,-1.3Zm0.388,14.662c1.808,0.45 3.696,1.05 5.475,1.513c-2.417,5.142 -2.525,1.483 -5.475,-1.513Zm-14.884,3.284l0.213,-4.217c1.192,0.763 2.362,1.533 3.554,2.296l-3.767,1.921Zm-9.362,4.771c-3.538,-2.305 -7.167,-4.759 -10.783,-7.217c11.058,-4.658 6.1,-0.371 11.266,-5.742c-0.15,4.379 -0.283,8.75 -0.483,12.959Zm1.858,-0.95c0.067,-1.4 0.15,-2.813 0.217,-4.213l1.892,-0.967l-2.109,5.18Zm-8.775,15.225c-4.316,-0.734 -8.541,-1.317 -12.858,-2.05c-0.404,-3.9 -0.888,-7.955 -1.404,-11.992c3.15,4.65 3.971,2.083 1.621,7.775c11.616,4.833 9.466,-1.108 18.266,3.4l-5.625,2.867Zm-17.75,6.895c6.321,-0.091 4.604,-2.154 11.988,0.342c-4,-0.112 -8.017,-0.217 -11.988,-0.342Zm-0.362,8.592l-9.396,4.783c1.088,-4.07 2.175,-8.145 3.233,-12.204c1.809,0.45 3.696,1.05 5.505,1.496c0.249,2.025 0.487,4.058 0.658,5.925Zm-21.55,-14.437l1.875,-0.955c-0.724,1.75 -1.389,3.524 -1.996,5.317c0.004,-1.567 0.071,-2.967 0.121,-4.362Zm-10.234,3.062c2.417,0.138 4.921,0.425 7.367,0.546c-6.733,0.696 -2.246,1.146 -7.367,-0.546Zm11.155,21.888c-0.471,-2.5 -1.071,-5.125 -1.542,-7.625c1.808,0.45 3.617,0.895 5.504,1.495c-1.337,2.05 -2.658,4.092 -3.962,6.13Zm5.741,-30.496l1.842,-0.938c-0.671,1.709 -1.292,3.592 -1.996,5.317c0.083,-1.413 0.071,-2.967 0.154,-4.379Zm-14.066,32.779c0.004,-1.567 0.07,-2.967 0.15,-4.379l3.766,-1.917c-1.671,5.15 0.667,1.225 -3.916,6.296Zm-6.48,1.154l-5.625,2.867l-1.741,-3.417c1.575,-1.583 3.183,-2.992 4.754,-4.575l3.767,-1.921l-1.155,7.046Zm-9.641,-14.25c1.808,0.446 3.616,0.892 5.504,1.496l-5.608,2.858c-0.046,-1.541 0.037,-2.954 0.104,-4.354Zm-5.879,34.863l-1.738,-3.413c-0.45,7.854 -2.046,-2.867 -3.4,-6.675l5.654,-2.883c-0.22,4.321 -0.393,8.645 -0.516,12.971Zm-11.484,-13.309l-3.404,-6.675c1.746,1.85 3.55,3.863 5.292,5.713l-1.888,0.962Zm-7.504,3.821l-2.608,-5.121c2.208,-0.341 4.367,-0.658 6.496,-1.158c-1.233,2.132 -2.529,4.226 -3.888,6.279Zm-3.629,-2.45c-5.975,-1.842 -0.787,0.792 -4.408,-4.008l1.879,-0.959l2.529,4.967Zm-16.158,14.688c-2.829,0.658 -5.546,1.454 -8.371,2.112l-2.613,-5.121l5.63,-2.866c3.029,5.295 -1.463,2.112 4.483,4.166l0.871,1.709Zm-6.234,20.183c-2.204,0.342 -4.316,0.833 -6.525,1.175c1.642,-2.988 3.28,-5.975 4.892,-8.946l4.638,-0.208c-1.009,2.662 -2.03,5.333 -3.005,7.979Zm-14.529,-5.304c-1.891,-0.6 -3.7,-1.046 -5.508,-1.496c0.321,-0.942 0.7,-1.725 1.021,-2.671l7.5,-3.821c-1.021,2.671 -1.992,5.317 -3.013,7.988Zm0.5,10.3c-8.008,-1.196 -7.283,-3.913 -8.875,-8.184c2.734,0.759 5.475,1.513 8.159,2.1c0.233,2.03 0.483,4.055 0.716,6.084Zm8.125,-21.146c-5.612,0.904 -9.121,2.104 -13.846,0.6l13.846,-0.6Zm2.609,5.121l-1.738,-3.413c3.221,2.071 2.096,-0.483 1.738,3.413Zm-30.875,13.579c-1.638,1.425 -3.213,3.008 -4.738,4.571c0.642,-6.975 1.35,-4.209 0.254,-8.734l1.875,-0.958l2.609,5.121Zm-15.505,20.608c-4.612,-0.775 -7.479,-3.225 -11.77,-4.558c-3.63,-2.063 -5.6,2.267 -12.975,2.312c2.962,2.792 5.879,5.409 8.875,8.184c-1.233,-0.782 -2.444,-1.599 -3.63,-2.45l-5.612,2.858l-0.504,-10.3c-2.209,0.342 -4.321,0.833 -6.529,1.175c16.037,-5.042 18.987,-5.958 33.637,-12.837c-1.796,10.3 -5.4,7.637 -1.492,15.616Zm-30.875,13.584c0.067,-1.405 0.15,-2.813 0.138,-4.371l3.733,-1.904l-3.871,6.275Zm-5.504,-1.496l1.742,3.416l-4.608,0.192c-0.938,1.263 -1.88,2.525 -2.896,3.629l-4.138,-12.754l5.629,-2.867l4.271,8.384Zm-17.683,7.054l-3.738,1.904c0.355,-2.333 0.742,-4.679 1.125,-7.025c7.013,-1.029 3.592,-0.462 8.371,-2.117c-2.516,6.171 3.279,4.784 -5.758,7.238Zm-18.388,24.225c-6.062,2.7 -0.275,2.296 -6.479,1.154c5.321,-0.171 2.788,-7.287 3.15,-12.358c4.158,2.183 -0.129,1.041 3.329,11.204Zm-20.508,6.15l-0.487,-10.308c-5.384,3.916 -2.301,-1.371 -4.867,4.433l-1.846,0.942c0.096,-7.48 2,-7.08 5.108,-13.163c6.15,2.342 3.875,4.088 5.142,10.092c1.925,-2.35 3.883,-4.717 5.838,-7.084c-2.976,5.038 -5.909,10.055 -8.888,15.088Zm-3.717,1.896l-2.612,-5.121l1.846,-0.942c0.233,2.034 0.516,4.042 0.766,6.063Zm11.842,-23.042l3.767,-1.921c-1.625,5.129 0.679,1.221 -3.871,6.275c-0,-1.566 0.067,-2.971 0.104,-4.354Zm-35.263,32.825c0.08,-1.412 0.146,-2.812 0.15,-4.379l1.875,-0.954c-0.62,1.879 -1.325,3.608 -2.025,5.333Zm-31.012,17.95c-0.95,-0.296 -1.808,-0.446 -2.758,-0.742c-0.238,-2.033 -0.488,-4.054 -0.721,-6.087c3.083,-0.055 6.165,-0.191 9.242,-0.408c-6.709,4.004 -2.396,0.05 -5.763,7.237Zm-19.504,3.488c-0.234,-2.034 -0.404,-3.9 -0.638,-5.93c2.509,4.196 2.596,0.042 0.638,5.93Zm-9.879,-5.525c0.033,-1.388 0.037,-2.95 0.104,-4.355l1.891,-0.962c-0.704,1.725 -1.325,3.608 -1.995,5.317Zm-16.159,14.687l-2.612,-5.125l3.737,-1.9c-0.387,2.346 -0.741,4.675 -1.125,7.025Zm-10.262,3.079c-1.888,-0.604 -3.696,-1.05 -5.509,-1.5c3.434,-6.829 3.788,0.225 3.05,-8.004c1.775,2.029 3.517,3.879 5.321,5.892c-1.016,1.104 -1.925,2.35 -2.862,3.612Zm-15.754,1.571c2.429,0.133 4.954,0.408 7.383,0.542c-6.721,0.683 -2.25,1.146 -7.383,-0.542Zm-5.121,13.167l-2.529,-4.967c1.808,0.446 3.616,0.896 5.504,1.496l-2.975,3.471Zm-18.738,9.55c1.054,-4.059 2.142,-8.134 3.229,-12.204c2.442,1.687 4.775,3.237 7.217,4.925c-3.5,2.37 -6.95,4.908 -10.446,7.279Zm6.092,11.95l-2.613,-5.121l1.863,-0.946c0.233,2.029 0.467,4.063 0.75,6.067Zm-11.988,-0.342l7.5,-3.825c-3.32,6.583 -0.395,4.896 -7.5,3.825Zm-7.904,-10.833c1.996,0.154 4.021,0.296 6.013,0.454c-4.688,-0.154 -0.309,2.504 -6.013,-0.454Zm-16.021,10.312l-2.612,-5.121l7.517,-3.829c-1,6.959 1.083,2.967 -4.905,8.95Zm-8.004,16.788c1.088,-4.075 2.175,-8.146 3.234,-12.204c2.745,-0.813 5.575,-1.471 8.32,-2.288c-3.833,4.888 -7.716,9.604 -11.554,14.492Zm5.279,5.716c-5.745,-2.154 -1.404,-0.066 -4.408,-4.008l1.875,-0.958l2.533,4.966Zm-14.383,-9.679c-0.154,-1.879 -0.408,-3.9 -0.642,-5.933l1.875,-0.954c-0.353,2.306 -0.765,4.602 -1.233,6.887Zm0.583,10.454c-7.05,3.788 -3.429,1.163 -8.475,6.471c-0.954,-0.3 -1.887,-0.604 -2.762,-0.746l-2.608,-5.12c5.75,-4.496 2.883,-1.471 10.262,-3.08c-1.746,-1.85 -3.55,-3.862 -5.292,-5.712l5.396,1.358l3.479,6.829Zm-17.866,11.255c-9.221,-0.775 -10.304,-3.55 -17.129,-10.434c6.429,-1.904 8.087,-2.75 12.241,-8.387l1.892,-0.963c4.217,11.146 1.375,13.963 2.996,19.784Zm-12.275,8.404c-0.25,-2.021 -0.484,-4.054 -0.734,-6.075l1.892,-0.963c0.079,6.213 1.088,1.984 -1.158,7.038Zm-14.246,-14.05l3.733,-1.904c1.809,0.445 3.621,0.891 5.509,1.495l-2.109,5.18c-3.333,-4.167 -0.808,-1.934 -7.133,-4.771Zm-0.5,12.962c1.004,-2.662 2.025,-5.333 3.029,-7.996c1.825,2.005 3.55,3.863 5.371,5.867c-6.217,0.625 -3.7,0.321 -8.4,2.129Zm2.125,18.079l-0.871,-1.708c1.338,-2.05 2.658,-4.092 3.888,-6.283l1.875,-0.954c4.82,3.408 -0.167,4.579 -4.892,8.945Zm-12.388,-15l-3.737,1.905c-2.363,-1.534 -4.8,-3.225 -7.163,-4.759c5.342,-3.308 6.58,-2.375 7.65,-8.2c2.43,0.134 4.875,0.254 7.38,0.542c-5.58,6.362 -4.1,2.871 -4.13,10.512Zm1.634,7.767l1.846,-0.937c1.504,1.383 2.916,2.616 4.42,4.004c-5.266,-1.034 -1.316,0.862 -6.266,-3.067Zm-4.967,8.792l5.608,-2.859c-2.837,5.355 0.538,2.659 -5.608,2.859Zm-8.908,-8.171l5.608,-2.858l2.613,5.12c-1.943,2.365 -3.89,4.727 -5.842,7.084c-1.388,-9.659 1.587,-3.742 -2.379,-9.346Zm-12.509,-10.638c1.571,-0.02 3.034,-0.175 4.605,-0.195l7.4,0.533c0.083,6.212 1.087,1.983 -1.238,6.883c-3.8,-7.837 -2.642,-3.541 -10.767,-7.221Zm3.988,17.13c-6.179,-1.934 -4.588,-0.988 -6.15,-7.425c6.325,2.641 2.108,2.445 6.15,7.425Zm37.437,-42.538l1.846,-0.937l2.609,5.12l-5.613,2.859l1.158,-7.042Zm18.617,-5.183c3.225,2.071 2.067,-0.467 1.742,3.412l-1.742,-3.412Zm-25.267,61.75c1.821,2.004 3.55,3.862 5.371,5.866c-6.371,-2.616 -1.287,0.267 -5.371,-5.866Zm-15.137,12.016l-2.608,-5.12c1.887,0.6 3.695,1.045 5.475,1.508c-0.909,1.246 -1.93,2.35 -2.867,3.612Zm-34.554,-12.112c-2.246,1.729 -4.438,3.629 -6.634,5.529c0.605,-8.125 1.175,-16.237 1.775,-24.367l9.38,-4.775c-1.509,7.805 -3.063,15.634 -4.521,23.613Zm8.171,2.092c-1.73,-1.855 -3.55,-3.859 -5.275,-5.717c1.17,0.771 2.362,1.533 3.612,2.458c0.071,-2.966 0.217,-5.779 0.254,-8.733l8.038,6.462c-4.038,4.796 -2.434,2.809 -6.629,5.53Zm-24.413,-10.825c-0.029,-1.55 0.038,-2.95 0.117,-4.363l5.508,1.496l-5.625,2.867Zm2.242,13.716c-2.192,0.334 -4.321,0.834 -6.479,1.15c1.054,-4.058 2.141,-8.129 3.229,-12.204c5.275,1.808 1.796,2.408 3.25,11.054Zm-0.471,12.946l-3.4,-6.675l3.737,-1.9l-0.337,8.575Zm-8.438,-21.117l3.767,-1.92l-4.967,8.791c0.384,-2.35 0.767,-4.696 1.2,-6.871Zm-7.1,18.475c-1.266,-0.916 -2.441,-1.687 -3.629,-2.45c4.5,-3.27 1.813,1.03 4.788,-4.587l3.733,-1.904c1.492,1.391 2.996,2.775 4.488,4.166l-9.38,4.775Zm9.013,3.817c-0.233,-2.029 -0.483,-4.054 -0.642,-5.929l1.879,-0.954c0.08,6.212 1.088,1.983 -1.237,6.883Zm-16.275,-8.717c-2.121,-8.5 3.2,-4.954 5.125,-13.166l1.887,-0.967c-1.929,7.242 3.192,1.7 -3.095,7.838l1.741,3.412l-5.658,2.883Zm13.779,-24.033l1.892,-0.962c-0.7,1.725 -1.325,3.608 -2.025,5.333c0.066,-1.4 0.066,-2.967 0.133,-4.371Zm-36.279,35.5l-0.871,-1.708c1.65,-1.429 3.229,-3.013 4.754,-4.575l6.53,-1.175c-3.125,6.283 -1.467,1.725 -10.413,7.458Zm0.15,-4.379c-1.18,-0.772 -2.365,-1.537 -3.554,-2.296c4.487,0.45 1.971,1.146 3.554,2.296Zm-10.171,3.225l-2.608,-5.121l1.875,-0.958c0.25,2.025 0.483,4.054 0.733,6.079Zm-2.758,-0.742c-3.142,0.038 -6.175,0.213 -9.242,0.404c0.304,-0.937 0.7,-1.725 1.004,-2.662l5.63,-2.867l2.608,5.125Zm2.125,18.075l-1.742,-3.412c3.225,2.071 2.067,-0.467 1.742,3.412Zm-15.617,-2.796c1.642,-2.987 3.25,-5.958 4.971,-8.787l3.767,-1.921c-2.979,3.471 -5.842,7.083 -8.738,10.708Zm8.117,6.621c-1.254,-0.929 -2.446,-1.691 -3.617,-2.462c4.471,0.462 1.954,1.158 3.617,2.462Zm-18.367,-3.55c0.842,-7.662 2.713,-9.2 6.129,-15.829l3.734,-1.904c-0.646,8.542 -2.442,9.65 -6.963,14.108c1.25,0.925 2.442,1.688 3.584,2.475c-2.147,0.462 -4.31,0.845 -6.484,1.15Zm-4.021,10.65l1.159,-7.037c6.687,-0.671 2.245,-1.146 7.35,0.554c-7.05,3.787 -3.475,1.183 -8.509,6.483Zm3.405,6.675c-0.25,-2.021 -0.409,-3.9 -0.659,-5.921l1.892,-0.962c0.083,6.212 1.092,1.983 -1.233,6.883Zm8.112,6.621c-3.237,-0.308 -1.033,-2.604 -6.525,1.175l1.154,-7.042c0.954,0.296 1.813,0.446 2.763,0.742c5.246,-1.696 0.2,-2.058 6.479,-1.15c-1.321,2.042 -2.658,4.092 -3.871,6.275Zm-16.271,-8.721l-3.479,-6.829c-6.154,0.988 0.146,4.617 -5.642,2.875c-4.045,7.925 -2.804,1.625 0.613,10.442c-1.654,1.429 -3.213,3.004 -4.867,4.433c-5.108,-8.346 1.159,-5.087 -8.004,-6.479c-3.133,-0.358 -4.246,-1.55 -4.771,4.583l-1.858,0.946c-3.146,-11.496 0.75,-10.55 1.637,-19.996l5.613,-2.858c-0.113,7.287 -0.292,0.733 5.141,10.087c3.83,-5.666 5.45,-3.362 5.121,-13.166c6.988,0.154 6.088,0.416 11.117,-1.363c1.188,0.763 2.362,1.534 3.55,2.296c-2.317,5.679 -2.488,4.2 -1.308,11.421c-1.021,1.148 -1.977,2.353 -2.863,3.608Zm-29.166,17.013c-1.888,-0.6 -3.696,-1.05 -5.476,-1.513l7.501,-3.821c-0.7,1.725 -1.405,3.455 -2.025,5.334Zm-2.363,13.912c-1.808,-0.446 -3.696,-1.05 -5.504,-1.496c5.779,-3.141 3.517,-0.229 5.792,-7.254c4.783,4.404 2.391,2.888 -0.288,8.75Zm-19.487,3.479c2.025,-3.77 3.954,-7.687 5.979,-11.454l3.733,-1.904c-3.246,4.392 -6.462,8.963 -9.712,13.358Zm-8.771,-12.541l5.658,-2.884c-1.958,2.367 -3.833,4.888 -5.792,7.255c0.067,-1.405 0.067,-2.971 0.134,-4.371Zm-11.909,-0.192c6.846,-2.312 5.13,-1.046 8.509,-6.483l3.766,-1.921c-1.404,3.454 -2.729,7.062 -4.1,10.496l-8.175,-2.092Zm-23.6,13.983c1.721,-4.395 3.396,-8.77 5.121,-13.17c0.55,2.654 1.038,5.145 1.588,7.795c6.316,-6.15 12.708,-12.145 19.054,-18.312l0.871,1.708l-3.767,1.921c7.037,3.842 -20.167,17.508 -22.867,20.058Zm10.109,1.3l-1.742,-3.416c3.304,2.229 2.083,-0.475 1.742,3.416Zm-5.105,13.159c0.838,-6.096 0.659,-1.117 -0.658,-5.921l1.892,-0.967c0.496,5.421 2.808,0.721 -1.234,6.888Zm-9.279,-22.842c0.75,3.921 3.184,0.921 -1.154,7.042l1.154,-7.042Zm-4.233,14.867c0.067,-1.404 0.15,-2.813 0.212,-4.213l3.738,-1.904l-3.95,6.117Zm42.796,-36.663l5.608,-2.858c-1.004,2.662 -2.025,5.333 -3,7.979c-1.192,-0.762 -2.442,-1.687 -3.629,-2.45c0.317,-0.946 0.7,-1.725 1.021,-2.671Zm16.375,4.363c6.775,-1.496 8.696,-2.279 13.879,-0.617c-6.567,4.125 -13.225,8.108 -19.792,12.233l-0.871,-1.708c6.621,-5.133 3.042,-3.112 6.784,-9.908Zm-3.4,-6.675l5.641,-2.871l1.742,3.412c-7.508,3.238 -1.567,2.559 -8.404,2.13c0.321,-0.942 0.7,-1.725 1.021,-2.671Zm19.775,-12.225c-5.371,3.908 -0.413,2.946 -6.513,1.166c2.192,-0.333 4.321,-0.833 6.513,-1.166Zm33.921,-21.584c6.279,-1.245 -2.946,6.975 -4.892,8.942c1.612,-2.971 3.25,-5.958 4.892,-8.942Zm-66.825,91.53l-2.613,-5.121l1.875,-0.959c0.25,2.025 0.488,4.055 0.738,6.08Zm-54.9,-10.35c-2.712,-0.764 -5.442,-1.458 -8.188,-2.084c4.729,-3.975 4.404,-0.287 4.909,-8.954c2.679,2.158 5.341,4.317 8.033,6.463c-6.075,2.708 -3.454,0.004 -4.754,4.575Zm-21.3,4.595l-0.867,-1.704c1.875,-2.521 3.8,-4.871 5.758,-7.237c1.192,0.762 2.363,1.533 3.634,2.45c-2.896,2.092 -5.738,4.257 -8.525,6.491Zm-18.767,9.567l-2.613,-5.125l5.509,1.496c-1.017,1.108 -1.959,2.367 -2.896,3.629Zm-24.396,12.429c1.325,-3.608 2.696,-7.046 4.021,-10.654c0.467,3.675 0.908,4.233 -4.021,10.654Zm-44.25,24.5l-3.4,-6.675l3.767,-1.921c-0.146,2.817 -0.217,5.784 -0.367,8.596Zm-4.887,8.942l-6.484,1.154c0.038,-1.387 0.117,-2.796 0.104,-4.354c7.705,0.179 10.946,-1.667 15.905,-5.954c0.787,8.787 -3.325,4.237 -9.525,9.154Zm-12.78,-1.896l-3.095,7.833c-0.309,-9.42 1.987,-6.483 4.25,-14.875c0.75,3.921 3.137,0.946 -1.155,7.042Zm-11.133,1.371c1.742,1.85 3.55,3.862 5.292,5.712c-6.334,-2.05 -2.925,0.317 -5.292,-5.712Zm2.275,13.7l-1.737,-3.413c3.27,2.242 2.05,-0.458 1.737,3.413Zm-15.387,-7.017c0.066,-1.404 0.037,-2.954 0.104,-4.358c0.129,2.283 2.246,0.421 -0.104,4.358Zm-16.021,10.313l-2.613,-5.121l7.504,-3.825c2.446,4.229 0.796,2.137 5.338,5.883c-3.429,0.967 -6.879,1.942 -10.229,3.063Zm7.133,4.771c0.083,-1.409 0.15,-2.813 0.154,-4.375l3.734,-1.905c-1.226,2.136 -2.522,4.23 -3.888,6.28Zm-11.371,10.095l-3.779,1.93c0.079,-1.413 0.083,-2.975 0.15,-4.38c1.188,0.763 2.442,1.688 3.629,2.45Zm-8.266,-2.237c-5.375,-0.588 -0.871,0.246 -8.521,6.492c0.383,-6.45 0.041,-8.038 3.379,-16.584l5.142,10.092Zm-1.125,7.025l-1.742,-3.417c3.304,2.229 2.054,-0.458 1.742,3.417Zm-34.171,2.55c-2.192,0.337 -4.321,0.833 -6.479,1.154c0.062,-1.404 0.037,-2.954 0.104,-4.354l3.762,-1.921l2.613,5.121Zm-19.392,26.892l-1.737,-3.417c3.22,2.075 2.095,-0.479 1.737,3.417Zm-81.054,26.441c0.004,-1.566 0.071,-2.971 0.121,-4.366l1.875,-0.955c-0.7,1.725 -1.371,3.438 -1.996,5.321Zm-50.408,17.079c-0.28,5.813 -1.713,-2.058 -2.53,-4.966c2.059,2.471 4.117,4.941 6.159,7.421c-1.171,-0.771 -2.442,-1.692 -3.629,-2.455Zm-7.788,12.571c-1.842,-0.625 -3.65,-1.071 -5.475,-1.512c0.717,-1.734 1.338,-3.613 1.996,-5.317c1.05,0.833 2.679,0.588 0.867,1.708c1.508,1.384 2.995,2.775 4.504,4.159l-1.892,0.962Zm-2.867,3.613c6.705,-0.679 2.167,-1.304 7.288,0.391l-7.288,-0.391Zm-3.95,6.116c0.038,-1.387 0.117,-2.795 0.184,-4.2c0.129,2.284 2.262,0.413 -0.184,4.2Zm-14.195,-13.883l9.054,3.792c-6.154,-0.967 -3.571,0.65 -9.054,-3.792Zm9.562,14.096c-1.18,-0.772 -2.365,-1.537 -3.554,-2.296c4.487,0.45 1.971,1.146 3.554,2.296Zm-3.004,7.979c0.067,-1.4 0.104,-2.787 0.104,-4.354l1.879,-0.954c-0.625,1.879 -1.325,3.608 -1.983,5.308Zm-11.817,-4.533c0.01,-1.461 0.06,-2.921 0.15,-4.379c1.175,0.77 2.363,1.533 3.617,2.458l-3.767,1.921Zm-46.616,66.175l-1.738,-3.413c3.304,2.229 2.067,-0.466 1.738,3.413Zm33.641,-63.867l-2.612,-5.121c5.529,2.267 2.937,-0.712 2.612,5.121Zm-55.437,30.396c0.083,-1.408 0.066,-2.967 0.15,-4.379c1.808,0.45 3.696,1.05 5.508,1.5l-5.658,2.879Zm-5.763,7.237l1.159,-7.041l1.858,-0.946c-0.988,2.654 -1.996,5.317 -3.017,7.987Zm-3.079,7.825c-0.249,-1.97 -0.467,-3.943 -0.654,-5.92c0.871,0.141 1.779,0.462 2.65,0.604c-0.592,1.866 -1.292,3.591 -1.996,5.316Zm-26.021,32.421c-4.871,-0.058 -9.129,0.546 -4.5,-4.158c-8.191,-2.671 -4.179,2.912 -10.904,-2.854c11.363,-3.834 7.717,3.304 18.633,-5.192c1.175,0.771 2.367,1.533 3.538,2.304c-4.875,7.175 -6.433,4.842 -6.767,9.9Zm24.629,6.613c0.488,2.487 1.038,5.137 1.525,7.629c-6.291,-2.467 -1.287,0.267 -5.291,-5.713c-4.679,4.538 -6.554,3.538 -12.242,8.392c1.358,-4.996 2.767,-10.012 4.238,-14.867c3.904,1.53 7.837,3.042 11.77,4.559Zm-47.916,-24.467l-6.496,1.163c0.7,-1.73 1.292,-3.592 1.996,-5.321c2.204,-0.342 4.316,-0.834 6.525,-1.175c-0.7,1.725 -1.325,3.608 -2.025,5.333Zm-1.871,24.221c7.883,-0.888 6.95,-0.608 12.871,2.046c-4.288,-0.75 -8.542,-1.321 -12.871,-2.046Zm12.537,10.625c-9.025,0.1 -3.983,0.267 -9.929,-5.5c10.329,-0.571 0.546,3.825 9.138,3.946l0.791,1.554Zm-25.82,-22.821l-2.609,-5.121l5.609,-2.862l2.608,5.125l-5.608,2.858Zm-1.342,11.242c-0.567,-2.646 -1.083,-5.121 -1.633,-7.771l1.891,-0.963c-0.087,2.975 -0.233,5.788 -0.258,8.734Zm-5.033,-14.446c3.683,3.4 1.408,1.042 0.762,6.062c-0.25,-2.025 -0.529,-4.029 -0.762,-6.062Zm15.766,-1.583l7.121,4.779l-2.85,3.604l-4.271,-8.383Zm17.671,-7.046l-4.742,4.566l-2.529,-4.966l3.734,-1.904c1.175,0.77 2.362,1.533 3.537,2.304Zm-39.2,15.866c-1.017,1.105 -1.925,2.35 -2.867,3.609c-5.508,-7.554 -2.45,-8.721 -10.645,-11.584l9.162,-0.562l4.35,8.537Zm-47.246,-18.55c1.992,0.159 4.017,0.3 6.013,0.459c-4.688,-0.154 -0.309,2.5 -6.013,-0.459Zm-521.766,-805.97l-2.53,-4.967l3.767,-1.921l-1.237,6.888Zm-9.163,0.562l1.667,3.258l-1.875,0.959l-0.509,-10.304c3.655,3.416 1.392,1.05 0.717,6.087Zm-14.629,22.317l0.283,-8.75l1.875,-0.954c0.6,4.583 1.225,2.895 -2.162,9.704l0.004,-0Zm-9.242,0.404c0.938,-1.258 1.959,-2.367 2.896,-3.625l3.733,-1.904l-1.125,7.029c-1.887,-0.604 -3.695,-1.05 -5.504,-1.5Zm-2.375,13.921l-0.875,-1.709c0.084,-1.408 0.167,-2.82 0.234,-4.22l7.5,-3.825c-1.542,5.283 -1.842,5.045 -6.863,9.754l0.004,-0Zm0.734,6.079c-6.23,7.471 -9.317,6.896 -5.259,17.537c-1.141,-0.787 -2.412,-1.704 -3.583,-2.475c-1.575,1.584 -3.229,3.013 -4.792,4.588c5.021,4.287 4.979,3.333 9.934,5.5l-6.634,5.529c-5.958,-4.979 -3.658,-1.85 -5.141,-10.087c-1.584,0.025 -3.063,0.191 -4.65,0.22l2.608,5.121c-4.95,-0.408 -9.792,-0.679 -14.75,-1.091l2.612,5.125c1.571,-0.021 3.067,-0.192 4.638,-0.213c-2.275,1.746 -4.471,3.646 -6.633,5.529c-5.021,-3.112 -1.538,-5.471 -3.146,-15.408c-5.309,1.729 -2.313,2.55 -9.242,0.408c5.108,-2.012 4.05,-1.475 11.133,-1.371l1.159,-7.041c2.712,0.771 5.475,1.512 8.221,2.262c-1.517,-0.791 10.083,-15.108 10.879,-20.4l9.166,-0.566l3.48,6.833Zm280.491,624.679c0,1.563 -0.066,2.967 -0.15,4.379l-3.4,-6.675l5.625,-2.866c1.175,0.77 2.363,1.533 3.538,2.304l-5.613,2.858Zm-313.146,-586.733c6.688,-0.667 2.167,-1.3 7.271,0.4c-2.429,-0.129 -4.841,-0.267 -7.271,-0.4Zm295.871,580.675c0.767,-3.125 1.442,-6.404 2.209,-9.529c3.933,1.512 7.866,3.025 11.77,4.558c-7.883,0.692 -7.533,1.687 -13.979,4.971Zm-11.271,5.741c-1.232,-0.781 -2.443,-1.598 -3.629,-2.45c0.4,-0.791 0.7,-1.725 1.1,-2.516l5.642,-2.875c1.779,0.462 3.587,0.912 5.396,1.358c-2.813,2.217 -5.613,4.425 -8.509,6.483Zm-13.258,-39.97c-1.321,2.041 -2.658,4.091 -3.904,6.287c-0.013,-1.554 0.071,-2.967 0.137,-4.371l3.767,-1.916Zm-285.371,-541.446l-2.608,-5.125c0.95,0.3 1.808,0.446 2.758,0.746c-0.083,1.408 -0.146,2.812 -0.15,4.379c1.259,-2.209 2.584,-4.25 3.917,-6.3c-0.783,3.137 -1.471,6.421 -2.254,9.558l-1.663,-3.258Zm10.263,-3.079c2.046,0.912 4.171,1.979 6.296,3.045c-0.938,1.263 -1.959,2.367 -2.896,3.63l-3.4,-6.675Zm5.8,-35.021l1.875,-0.954c-1.004,2.662 -2.025,5.333 -3,7.979c0.354,-2.329 0.737,-4.675 1.125,-7.025Zm249.133,577.116c-7.429,-6.575 -1.042,0.138 -2.458,-9.5l5.504,1.496c-1.021,2.671 -2.025,5.334 -3.046,8.004Zm-0.183,4.2c3.029,1.388 6.029,2.596 9.091,3.971c-5.966,-0.675 -4.108,-0.058 -9.091,-3.971Zm13.075,21.1l5.658,-2.879c-4.525,4.259 0.413,3.113 -5.658,2.879Zm-29.884,-40.104c-1.808,-0.446 -3.695,-1.05 -5.475,-1.512c0.988,-1.088 1.925,-2.35 2.867,-3.609l1.888,-0.966c0.237,2.033 0.487,4.054 0.72,6.087Zm7.617,19.579c-3.754,-2.191 -10.346,-1.179 -16.742,4.234l1.155,-7.042c5.858,-0.837 11.75,-1.687 17.612,-2.521l-2.025,5.329Zm-19.487,-47.55c0.066,-1.404 0.07,-2.966 0.133,-4.37l1.892,-0.963c-0.7,1.725 -1.325,3.608 -2.025,5.333Zm-235.788,-332.875c-1.575,1.588 -3.212,3.009 -4.758,4.575l-7.884,-10.841l11.267,-5.742c0.488,4.054 0.892,7.954 1.375,12.008Zm3086.6,-1058.1c-0.829,-17.958 24.713,-23.15 30.992,-41.208c-0.921,-0.312 -1.717,-32.758 -0.467,-38.083c-20.991,-8.859 -33.891,-39.238 -77.446,-49.892c-4.458,1.296 -1.858,-0.617 -2.866,3.613c-19.85,-8.659 -49.838,-34.83 -47.163,-46.163l-2.529,-4.967c-35.546,-9.454 -102.558,-50.975 -117.229,-95.508c-1.083,2.504 -2.075,5.163 -3.079,7.825c1,-11.262 -17.338,-28.704 -27.421,-30.604c-6.204,-2.708 -2.392,-0.938 -8.375,2.112c2.85,-5.754 0.254,-1.3 4.758,-4.575c-15.508,-12.041 -41.775,-34.433 -52.387,-28.637c0.146,-2.813 0.171,-5.758 0.317,-8.571c-9.9,-0.233 -2.917,-2.617 -10.246,3.071c0.637,-16.942 -19.629,-11.896 -18.517,-22.433c-9.742,-3.442 -6.158,-3.121 -13.008,2.325c-1.863,-7.259 0.725,-10.338 -8.725,-12.563c-0.821,0.613 -0.413,-1.158 -10.263,3.079c1.613,-2.971 3.25,-5.958 4.892,-8.946c-10.983,-5.158 -7.542,0.713 -23.575,-9.104c6.604,-2.975 3.742,0.638 6.662,-5.546c-16.612,6.513 -40.016,-31.029 -60.925,-22.137c-1.633,-15.2 4.075,-85.95 -35.52,-88.258c-0,-0 -0.034,0.016 -1.021,2.666c-25.163,-16.7 -100.467,-61.229 -125.204,-50.971c0.354,-2.333 0.737,-4.679 1.125,-7.025c-10.525,5.167 -11.696,3.025 -16.409,-4.35c-4.291,4.146 -4.754,1.055 -10.366,7.434c0.587,-13.792 -86.625,-22.534 -101.196,-3.771l-3.479,-6.829c-9.259,5.5 -9.275,7.271 -15.871,5.937c-4.921,7.004 -3.271,1.667 1.591,7.792c-5.812,-0.558 -11.608,-1.125 -17.495,-1.838c0.095,5.817 0.062,3.488 1.62,7.775c-34.204,-8.966 -99.5,-30.833 -143.583,-3.479c0,0 -6.596,-5.441 -3.554,-2.3c-12.525,15.184 -89.979,23.367 -111.088,41.746c-1.254,-0.925 -2.445,-1.687 -3.616,-2.458l7.5,-3.825c-13.504,0.625 -62.8,29.85 -62.8,29.85c-3.134,-2.313 -2.704,0.4 -1.742,-3.417c-6.379,-1.633 -29.375,10.475 -28.129,14.333c-4.238,-0.575 -8.571,-1.3 -12.779,-1.895c-0.763,1.954 -1.475,3.883 -2.317,5.679c0.333,0.808 0.263,1.625 -0.808,2.166c0.287,-0.729 0.55,-1.445 0.808,-2.166c-0.671,-1.809 -4.5,-3.767 -5.183,-1.854c-13.963,7.308 -38.7,14.241 -52.542,26.766c-24.767,22.004 -200.675,102.054 -216.4,99.509c-19.546,7.808 -36.771,25.579 -45.892,21.233c-4.312,7.867 -2.475,2.237 -0.287,8.75c-11.308,-0.888 -47.158,14.837 -45.758,16.862l0.87,1.709c-8.684,3.085 -17.397,6.089 -26.137,9.012l0.871,1.709c2.525,0.279 4.921,0.425 7.366,0.545c-8.608,1.65 -17.295,3.146 -25.983,4.638c-5.492,4.362 -7.787,12.571 -7.787,12.571c-18.955,5.941 -136.355,60.483 -136.721,61.062c-6.05,12.075 -51.409,35.775 -73.304,41.65c-1.275,0.454 -71.48,33.096 -75.346,46.996c-10.884,-6.187 -47.025,25.913 -58.15,29.629c-44.659,14.734 -123.625,86.842 -190.875,107.813c-25.675,7.996 -75.188,55.121 -91.234,52.937c-42.65,26.029 -85.391,51.913 -128.07,77.963c2.208,-0.342 4.291,-0.817 6.483,-1.154c-68.658,25.6 -150,108.495 -217.567,134.316c-22.537,24.388 -115.133,95.229 -127.804,96.992c-0.079,1.408 -0.162,2.821 -0.229,4.221c1.887,0.604 3.696,1.05 5.475,1.512c-2.4,-0.146 -4.842,-0.271 -7.367,-0.546c-7.633,4.867 -6.921,8.217 -11.658,18.842c-1.508,-3.921 0.904,-1.829 -3.629,-2.45c-21.913,-11.321 -92.163,105.025 -119.188,113.908c0,0 -26.237,22.95 -41.937,38.38c-9.804,9.491 -63.634,53.929 -67.659,62.041c-16.162,33.067 -60.779,52.671 -75.933,87.567c-8.422,5.107 -16.889,10.139 -25.4,15.096c-12.742,27.021 -8.987,38.791 -44.542,61.012l9.142,3.95c-6.459,-0.368 -12.922,-0.661 -19.387,-0.879c-4.559,7.408 -2.088,8.888 -9.646,13.521c-1.834,4.062 -1.659,0.65 -3.617,-2.463c-12.196,15.6 -20.125,20.23 -24.292,35.842c-5.67,-2.387 -1.166,-3.121 -9.095,-3.971c-1.738,10.075 -5.367,11.342 -15.15,12.025c-7.067,17.092 -14.105,34.167 -21.167,51.254c9.396,5.38 9.7,0.73 19.167,5.092l-7.53,3.838c-0.083,1.412 -0.12,2.8 -0.2,4.208c1.446,0.046 2.88,0.096 4.25,-0.013l2.246,-1.145c0.017,0.383 0.084,0.737 0.1,1.12c4.904,0.042 9.746,-0.075 14.646,-0.029l-2.025,5.329l-2.608,-5.12c-1.575,0.016 -3.067,0.191 -4.609,0.195c-1.095,8.38 -0.616,2.467 4.271,8.384c-21.833,9.366 -75.85,76.187 -78.458,82.6c2.329,1.55 4.771,3.237 7.133,4.771c-5.158,27.85 -23.325,34.762 -28.054,65.52l7.5,-3.82c-2.925,5.595 -0.283,1.316 -4.833,4.416c15.425,17.167 30.366,70.363 42.487,74.154c-2.804,5.342 0.567,2.646 -5.608,2.859c6.833,40.121 68.612,155.083 81.546,164.721c34.137,25.229 72.262,49.404 96.221,63.591c14.375,-13.779 48.929,-7.729 47.8,-22.204c13.141,-0.833 24.987,16.204 32.379,21.821c-2.429,-0.129 -4.875,-0.254 -7.384,-0.538l1.742,3.413c-0.671,1.712 -1.296,3.592 -1.996,5.321c7.642,0.208 3.496,-2.763 12.138,-4.038c-0.046,-1.541 0.037,-2.95 0.104,-4.354c0.487,2.492 1.037,5.142 1.554,7.617c1.142,6.258 -4,11.029 -9.533,17.566c6.7,-2.633 28.066,-10.587 36.237,-16.12l1.663,3.262c-1.913,6.058 -1.025,0.325 0.733,6.075c-9.717,3 -8.217,3.796 -11.129,1.371l-5.613,2.858l0.871,1.709c-5.95,5.183 -5.796,6.866 -3.383,16.583c9.021,-12.221 24.004,-11.054 35.512,-13.792c-8.912,14.121 -27.616,8.596 -32.245,24.838l-3.738,1.904c7.646,0.208 1.367,1.454 7.504,-3.825c-0.01,1.461 -0.06,2.921 -0.15,4.379c8.563,0.525 -0.079,-3.675 10.259,-3.079c-0.905,3.396 -3.267,1.667 2.383,9.346l-1.846,0.941c-4.254,-0.57 -8.571,-1.304 -12.792,-1.891l6.009,11.8c4.487,-5.025 2.329,-0.992 3.887,-6.284c4.771,1.284 26.942,9.734 34.404,16.492c-2.785,2.226 -5.62,4.387 -8.504,6.483l0.867,1.705c8.596,-3.205 8.529,-3.755 13.267,-11.055l3.479,6.825c-1.725,4.4 -3.4,8.775 -5.125,13.171l6.633,-5.533c1.954,12.3 13.233,6.358 18.013,12.137c4.32,1.317 0.691,0.625 -2.867,3.609l3.483,6.829c1.142,0.787 2.329,1.55 3.504,2.321c5.875,-4.754 3.93,-1.025 3.996,-6.142c5.329,2.954 5.288,1.217 0.642,5.929c0.567,2.646 1.037,5.142 1.604,7.788c12.671,-12.717 6.588,-12.546 13.763,-24.025c1.808,0.45 3.587,0.912 5.395,1.358c-4.037,4.796 -2.437,2.804 -6.633,5.529c-0.067,2.967 -0.217,5.779 -0.254,8.734c7.1,-9.288 4.567,-2.913 14.867,-3.275c1.933,-7.242 2.612,-6.217 1.262,-11.396c7.146,0.462 3.583,0.325 10.263,-3.079c2.404,20.087 40.266,38.529 56.687,37.004c-0.687,3.287 -1.471,6.421 -2.162,9.708c9.575,1.963 12.704,6.233 17.816,16.338c1.925,-2.35 3.884,-4.717 5.838,-7.084c3.712,12.188 24.196,10.746 38.933,16.142c1.338,-2.05 2.658,-4.092 3.963,-6.129c4.191,8.229 12.679,4.883 24.295,15.191l5.63,-2.866c-1.575,0.016 -3.067,0.191 -4.609,0.196c0.354,-2.334 0.742,-4.68 1.204,-6.871c24.305,39.037 93.796,52.316 108.092,91.562c6.196,-1.787 12.454,-3.412 18.65,-5.2c1.117,3.729 2.142,7.313 3.263,11.046c3.362,-9.729 -0.305,-6.883 6.966,-14.108l-3.479,-6.829c-6.804,-0.446 -2.667,1.554 -1.125,7.025l-3.767,1.916c-4.429,-6.541 -0.941,-2.646 -8.083,-6.633c0.379,-0.779 0.7,-1.725 1.083,-2.508l9.359,-4.767c0.304,-0.938 0.625,-1.883 1.008,-2.663l6.008,11.796c1.509,1.384 2.996,2.775 4.421,4.004l-2.391,-9.337l1.891,-0.963c3.517,3.875 7.063,7.738 10.613,11.6c-0.7,1.725 -1.325,3.609 -1.996,5.317c-2.996,4.654 -0.079,-0.154 -10.263,3.079c1.121,3.729 2.146,7.313 3.267,11.046l7.5,-3.825l-4.633,0.213c2.383,-5.517 11.571,-6.871 20.875,-14.742c4.008,10.471 7.241,8.237 3.262,11.046c2.35,1.541 4.804,3.221 7.167,4.754l1.846,-0.938c-0.804,-3.112 -1.592,-6.229 -2.379,-9.345l4.637,-0.213c0.063,-1.404 0.067,-2.967 0.133,-4.371c2.142,10.834 10.788,21.484 5.359,29.138c7,1.325 7.004,-2 15.771,-1.579c0.687,-3.284 1.425,-6.4 2.129,-9.692c5.679,1.996 1.708,-0.479 2.608,5.125l0.871,1.708c3.212,-3.008 6.317,-6.154 9.529,-9.158c-1.183,3.733 -15.379,15.071 -13.883,28.383c10.854,-10.221 10.875,-7.887 23.525,-14.133l0.866,1.704c-2.895,3.629 -5.758,7.238 -8.733,10.708c-0.004,1.567 -0.071,2.971 -0.154,4.38l0.871,1.708l7.5,-3.825c0.954,0.3 1.812,0.45 2.762,0.746c-2.921,-5.159 1.492,-2.129 -4.5,-4.159l3.996,-6.141c2.292,0.591 4.733,0.325 13.767,-0.759c-2.354,-4.275 0.304,-4.845 -8.159,-2.1l-4.345,-8.537c7.758,-8.063 -0.163,-0.313 13.154,-6.704c-4.967,-6.071 -2.984,-5.517 -5.904,-16.15c4.2,-2.142 4.487,0.45 2.895,-3.629c4.334,0.729 8.542,1.32 12.871,2.045c-0.804,-3.112 -1.591,-6.229 -2.391,-9.337l-15.034,7.658c0.704,-3.291 1.471,-6.421 2.175,-9.712l-3.766,1.921c-3.963,0.65 -9.046,3.241 -9.53,9.158l-1.858,0.946c-0.662,-8.659 -1.837,-13.338 4.358,-19.229c3.496,3.104 -1.025,2.475 6.296,3.045c2.529,-8.52 12.779,-22.541 17.513,-25.933c2.175,-6.192 -0.675,-0.829 6.712,-5.375c2.017,9.138 -0.641,5.608 10.646,11.588c-0.012,-1.559 0.067,-2.971 0.133,-4.371c4.721,0.333 1.817,-0.534 -0.75,-6.071c1.809,2.012 3.55,3.862 5.355,5.875c4.733,-9.45 -2.484,-3.425 3.154,-12.358c-9.559,-2.171 -7.367,5.12 -11.771,-4.559c-8.088,0.796 -2.258,5.45 -9.242,0.404c-0.941,1.263 -1.958,2.367 -2.896,3.625c1.242,-5.716 0.388,-3.912 4.921,-8.958c0.425,-3.346 21.288,-13.779 30.004,-15.287c3.25,6.945 -0.725,6.233 8.117,6.616c-5.746,10.75 -14.979,8.804 -15.504,20.609c-1.571,0.02 -3.063,0.191 -4.633,0.212c11.137,4.883 14.154,-4.479 19.77,-12.229c3.192,5.612 4.346,5.804 10.846,7.379c-0.341,-3.929 1.729,-1.662 -1.737,-3.412l-0.871,-1.709l9.379,-4.779c-0.55,6.929 1.925,1.563 -3.875,6.275c11.829,7.271 7.538,0.267 17.921,11.988c-8.483,0.02 -22.15,8.937 -30.542,5c-2.646,5.65 -5.275,11.291 -8,16.787c-9.521,-3.167 -1.758,-5.554 -10.904,-2.85c0.975,-6.171 1.242,-6.304 5.896,-11.608c-6.692,0.083 -3.9,2.379 -9.163,0.562c-5.862,13.546 -9.4,9.479 -11.733,18.688c-2.442,-1.688 -4.808,-3.221 -7.25,-4.913c-1.542,1.571 -3.1,3.146 -4.754,4.575l3.479,6.829c1.492,-0.17 3.067,-0.191 4.638,-0.208l-1.742,-3.417c4.896,1.025 6.962,2.709 9.746,9.892l4.637,-0.208l-1.741,-3.417c8.195,-2.804 0.091,-0.242 6.633,-5.529c0.079,-1.408 0.15,-2.813 0.15,-4.379l4.35,8.537c4.192,-5.066 5.058,-1.991 6.767,-9.9c6.341,2.638 1.291,-0.266 5.341,5.884c0.067,-2.967 0.217,-5.784 0.284,-8.75c11.504,-9.38 6.966,-12.15 21.516,-8.809c-6.554,1.579 -6.696,1.454 -10.4,7.446c0.954,0.296 1.809,0.45 2.763,0.746c7.246,-6.625 14.591,-6.654 13.262,-11.058c6.371,2.616 1.275,-0.263 5.354,5.87c7.05,-13.366 10.963,-8.712 19.025,-18.295c0.567,2.645 1.038,5.141 1.605,7.787c4.095,-9.129 0.191,-9.092 -0.217,-19.05c-3.213,3.004 -6.425,6.013 -9.608,9c0.233,2.033 0.483,4.054 0.72,6.088c-6.1,-7.259 -2.708,-5.659 -9.012,-3.817c-2.283,-6.854 -2.95,-6.513 -8.771,-12.542c1.188,0.763 2.363,1.534 3.55,2.296c3.9,-6.483 3.25,1.475 5.325,5.892c3.75,-5.625 9.388,-7.325 10.683,-16.196c-3.416,-1 -1.654,1.233 -5.275,-5.721c5.838,2.304 1.4,0.067 4.484,4.167c4.038,-2.868 8.124,-5.667 12.258,-8.396c-6.221,-1.329 -0.242,-1.05 -6.496,1.158c1.75,-8.516 2.05,-4.171 8.671,-10.871c-0.067,2.967 -0.217,5.78 -0.3,8.755c6.75,-7.934 4.108,-2.092 2.146,-9.692c2.192,-0.338 4.321,-0.833 6.529,-1.179c1.792,6.321 0.567,4.796 6.113,7.446c-3.138,-6.809 3.045,-4.488 -3.4,-6.675l-4.271,-8.384c-0.034,1.388 -0.117,2.796 -0.184,4.2l-4.65,0.221c-6.208,-3.292 -1.279,-2.283 -7.271,-0.404c3.446,-6.642 12.592,-5.438 10.65,-16.179c3.384,0.429 6.734,0.871 10.113,1.3c-1.808,-2.013 -3.55,-3.863 -5.354,-5.875l1.875,-0.954c6.575,5.054 8.321,7.1 15.479,7.166c1.421,11.788 -2.333,7.446 -6.125,15.829c4.637,-0.212 9.271,-0.425 13.8,-0.775c-5.404,-11.712 1.042,-3.658 6.125,-15.829c2.046,2.479 4.104,4.95 6.225,7.584c4.938,-7.405 1.242,-2.396 9.362,-4.771c-5.791,-2.134 -11.537,-4.096 -17.329,-6.229l-0.787,-1.55c2.153,-1.91 4.364,-3.754 6.629,-5.53l2.529,4.967c2.133,-0.304 4.704,-1.612 7.571,-3.271c-0.017,-0.187 -0.067,-0.358 -0.067,-0.554l2.775,-1.412c2.911,-2.085 5.689,-4.349 8.317,-6.78c0.104,-0.637 0.192,-1.27 0.388,-1.762c0.542,-0.113 1.1,-0.133 1.649,-0.058c6.58,-6.284 12.609,-13.071 15.501,-17.284c6.533,3.513 1.933,0.192 4.27,8.384c7.305,-7.242 7.705,-3.73 11.117,-1.363l7.504,-3.821c-4.933,-9.025 -2.216,-6.496 -7.754,-15.212c12.854,3.229 8.913,1.325 21.246,-0.071c-0.325,-7.071 -0.733,-4.125 2.162,-9.704c1.188,0.762 2.409,1.704 3.596,2.466l4.638,-0.212c-10.309,8.771 -10.704,13.475 -18.384,24.229c0.738,-4.679 1.513,-9.375 2.363,-13.912c-5.921,3.404 -1.929,4.112 -7.504,3.82c-1.475,6.23 -0.771,2.742 3.266,11.046c-7.52,1.488 -0.404,2.159 -8.37,2.113c3.52,7.983 1.562,8.2 9.745,9.896c-0.575,-5.38 2.959,-9.134 8,-16.788l3.4,6.675c6.255,-8.075 -0.9,-3.646 9.396,-4.783c0.692,-4.85 0.775,-7.634 3.229,-12.204c4.584,3.137 -0.016,3.72 5.475,1.508c8.271,1.067 -0.379,-0.588 10.396,-7.446c-9.416,-2.242 -9.112,-1.221 -12.137,4.033c-3,-3.358 -1.246,-2.295 -1.525,-7.629c-4.2,4.092 -2.934,-0.854 -3.95,6.117l-1.892,0.962c1.088,-4.07 2.175,-8.145 3.233,-12.204c7.584,2.2 4.55,1.004 8.038,6.463c3.962,-6.125 7.867,-12.413 11.75,-18.696l2.612,5.125c1.809,0.446 3.617,0.892 5.396,1.354c1.084,-2.508 2.104,-5.179 3.125,-7.85c-5.908,0.858 -1.112,2.717 -7.396,-0.533l11.267,-5.742c-0.379,4.888 -0.171,9.475 -2.362,13.913c6.041,3.766 0.129,2.475 7.354,0.558c6.333,4.004 1.929,-0.008 4.271,8.379c9.562,-10.15 14.22,-11.742 14.645,-22.321l-7.5,3.821c3.342,-6.2 -0.104,-1.121 6.634,-5.529c-2.446,-0.125 -4.875,-0.254 -7.275,-0.4l-0.867,-1.708c3.967,0.129 7.983,0.233 11.904,0.191c4.05,9.667 2.509,9.475 -0.437,13.125l3.404,6.675l1.892,-0.962c4.337,-10.034 8.67,-20.063 13.091,-29.938c2.679,0.588 5.425,1.338 8.188,2.084c-9.425,2.845 -10.196,4.02 -9.679,13.533l0.87,1.708c8.434,-2.146 2.809,-2.996 10.184,-3.233c-4.942,-6.475 1.879,-3.892 -7.138,-4.771l-0.871,-1.708c12.725,-2.379 7.784,-0.054 19.609,-7.838c0.471,2.496 1.071,5.125 1.541,7.621c8.609,-11.033 15.396,-12.929 26.467,-17.596c-1.279,-13.621 -0.554,-13.008 6.417,-24.575c3.229,3.238 6.512,6.65 9.746,9.892c-8.125,1.792 -8.025,6.825 -12.625,16.992l0.87,1.704c3.096,-0.209 4.792,-1.854 5.696,-3.879c-0.316,-0.219 -0.619,-0.455 -0.908,-0.709l1.225,-0.625c0.564,-2.044 0.557,-4.205 -0.021,-6.246c3.063,-0.191 6.129,-0.387 9.242,-0.408c1.333,-7.912 -0.888,-9.325 -5.004,-14.458c3.383,-1.138 6.795,-2.096 10.179,-3.234c2.133,5.755 -1.988,3.946 4.487,4.167c-0.454,3.75 -0.921,7.508 -1.371,11.254l13.371,-10.916l-4.35,-8.538c2.886,-2.096 5.723,-4.259 8.509,-6.487c-1.975,6.091 1.45,2.195 -4.771,4.583c0.55,2.65 1.037,5.142 1.587,7.792c5.534,0.704 6.242,-1.809 15.692,-1.738c0.146,-2.812 0.217,-5.779 0.333,-8.575c3.154,5.042 1.825,-1.321 4.484,4.167c10.425,-6.096 8.945,-8.275 17.179,-17.359c4.496,7.292 12.308,3.505 23.775,4.896c0.387,-2.346 0.771,-4.691 1.125,-7.025c-3.034,0.179 -6.096,0.371 -9.175,0.571l-2.613,-5.121c11.55,0.175 10.584,2.038 18.633,-5.191c0.805,3.108 1.625,6.212 2.43,9.32c4.129,-2.725 8.21,-5.523 12.241,-8.391l-1.158,7.041c2.896,-3.625 5.792,-7.25 8.658,-10.862c-0.625,1.883 -1.325,3.608 -1.996,5.321l0.871,1.704c5.092,-5.525 3.429,-2.921 4.892,-8.942l3.733,-1.904l-4.604,0.196c-2.122,-0.968 -4.221,-1.985 -6.296,-3.05c2.125,-0.496 4.317,-0.829 6.525,-1.175l3.738,-1.9c0.721,4.517 1.441,9.037 2.275,13.7c5.125,-6.913 4.012,-2.242 1.258,-11.396c7.442,-1.837 13.6,-0.675 16.488,4.5c10.254,-8.154 10.191,-13.596 17.766,-6.896c5.613,-4.389 11.278,-8.711 16.996,-12.962c-2.446,-4.229 -0.796,-2.138 -5.342,-5.884c13.005,1 13.571,-0.266 27.88,-5.6c-2.38,-3.091 -4.738,-6.191 -7.034,-9.125c8.709,2.796 6.588,2.313 7.9,10.83c7.929,-3.059 7.538,-3.25 12.929,-2.48c-18.275,5.4 -12.358,11.38 -40.22,18.538c-1.784,4.429 -2.196,7.179 -3.23,12.204c-7.312,-5.462 -2.42,2.604 -9.879,-5.521c-5.725,4.284 -11.416,8.55 -17.108,12.821c-3.054,-3.921 1.308,-1.842 -4.425,-4.004c-3.475,7.05 -8.138,11.383 -14.129,9.354c-1.088,2.504 -2.109,5.175 -3.129,7.846c4.462,3.008 -1.242,4.154 -6.767,9.9c0.771,-4.692 1.542,-9.388 2.392,-13.925c-6.275,5.154 -8.209,10.246 -12.35,8.25l-1.892,0.962c1.121,3.73 2.254,7.45 3.375,11.184c18.154,-10.425 26.904,-12.142 40.404,-22.738c-1.026,1.159 -1.993,2.368 -2.896,3.625c8.167,3.467 9.709,-2.012 18.538,-5.337c0.954,-7.134 1.7,-1.259 -3.4,-6.675c0.7,-1.729 1.325,-3.609 2.025,-5.334c3.354,6.5 1.821,3.567 7.033,9.125c8.008,-6.429 8.788,-4.479 9.575,-8.983c9.621,-3.342 2.204,-2.687 -2.475,-9.496c8.504,-1.204 29.121,11.559 27.875,-5.6c5.975,1.846 0.879,-0.646 4.404,4.013c8.617,-0.675 1.904,-3.317 3.096,-7.834l1.742,3.413c0.903,-1.257 1.869,-2.467 2.896,-3.625c1.026,-1.158 9.529,-5.246 21.3,-4.596c0.85,-4.537 1.587,-9.217 2.358,-13.912l-3.763,1.92c-3.9,-4.466 -5.337,-1.387 -4.758,4.575l-8.037,-6.462c-1.675,4.371 -3.4,8.767 -5.075,13.142l-6.375,-3.205c6.608,-0.825 11.037,-9.141 5.258,-17.537c4.75,-3.008 9.458,-6.188 14.129,-9.35c2.917,4.183 5.846,8.362 8.758,12.546l1.892,-0.963c-1.554,-7.225 4.733,-5.341 -4.167,-12.733c4.784,-3.221 0.78,0.383 4.788,-4.592c1.117,3.729 2.221,7.471 3.342,11.2c2.112,-0.487 4.275,-0.808 6.404,-1.304c-1.746,-1.85 -3.55,-3.867 -5.292,-5.712c3.463,-0.984 6.829,-2.113 10.263,-3.08c-4.138,-3.562 -8.325,-7.1 -12.509,-10.637c0.079,-1.408 0.084,-2.975 0.15,-4.379c6.204,-0.813 7.717,-2.171 10.979,-0.9c0.03,-0.213 0.046,-0.413 0.155,-0.471c1.175,0.771 2.362,1.533 3.583,2.475c-1.613,-1.133 -2.754,-1.725 -3.738,-2.004c-3.029,7.996 -2.42,4.362 3.405,10.583c-0.084,1.408 -0.071,2.967 -0.15,4.379c4.083,-2.866 8.216,-5.558 12.287,-8.412c5.529,-3.209 -0.033,0.016 3.883,-6.279c1.809,2.008 3.55,3.858 5.359,5.87c1.608,-2.97 3.25,-5.958 4.891,-8.945c7.559,1.429 10.138,0.7 15.734,-1.567c-0.6,8.129 1.712,3.629 -6.859,9.754l8.267,2.242c4.371,-5.946 7.221,-7.396 5.896,-11.609c4.475,0.85 -0.15,-1.291 -4.558,0.367l-2.609,-5.121c12.584,-8.562 3.459,-3.329 19.638,-7.858c2.654,-6.629 -2.309,-4.688 3.154,-12.358c2.792,4.833 0.221,6.145 8.233,2.254c1.242,8.754 3.121,2.712 -2.146,9.7c-0.687,3.283 -21.82,16.787 -27.758,29c1.492,-0.171 3.063,-0.192 4.633,-0.209c-1.016,1.105 -1.954,2.363 -2.975,3.471c27.105,-18.112 32.888,-11.283 56.509,-32.896c-0.388,2.346 -0.821,4.521 -1.204,6.867c8.475,-6.467 4.812,-6.95 8.504,-6.483c6.104,-7.217 4.896,-6.6 3.233,-12.204l1.992,-5.317c-3.338,1.112 -6.796,2.096 -10.246,3.071c1.004,4.571 1.108,2.366 5.354,5.871c-10.033,4.137 -15.679,-2.763 -28.879,8.266l-3.4,-6.675c12.971,-5.046 7.371,-0.825 14.133,-9.354c0.179,1.083 73.446,-41.137 81.721,-43.787c5.683,-1.725 1.513,-3.705 2.025,-5.338c4.131,-2.723 8.214,-5.519 12.246,-8.387c2.758,0.745 5.504,1.495 8.233,2.258c2.792,-14.525 3.538,-5.125 9.025,-19.458c2.713,0.77 5.475,1.512 8.217,2.262c-9.113,4.254 -7.158,-0.258 -6.842,9.746c6.379,-7.55 12.854,-14.958 19.238,-22.508c-1.059,4.054 -2.146,8.129 -3.234,12.2c13.434,-11.146 9.984,-10.559 22,-21.767l5.509,1.496c-3.663,3.429 -2.684,-0.784 -3.984,6.137l3.767,-1.921c2.525,2.43 7.696,-10.375 12.608,-16.983c5.409,0.958 15.805,-1.012 16.609,0.142c3.062,-0.192 6.125,-0.384 9.158,-0.563c0.192,-9.091 -5.196,-3.996 5.979,-11.45c-6.062,-2.779 0.879,-2.796 -6.346,-3.221l-0.87,-1.708c6.312,-0.871 10.691,-0.362 16.487,4.504l1.863,-0.946l3.762,-1.92c-9.892,-9.034 -13.079,-8.584 -24.642,-6.605c3.217,-4.57 5.109,-3.383 10.263,-3.079l1.875,-0.954c0.354,-2.329 0.737,-4.679 1.125,-7.025l-9.379,4.779c4.075,-6.379 11.354,-5.004 17.9,-11.271c1.175,0.767 2.441,1.688 3.616,2.459c-2.658,4.091 -5.208,8.321 -7.866,12.412c6.116,5.879 8.191,0.717 12.721,6.425c5.57,1.854 0.233,-0.116 2.529,4.967c3.383,-7.196 5.521,-8.479 -0.504,-10.3c-0.484,-4.054 -0.955,-8.117 -1.405,-11.992l9.392,-4.787l0.792,1.554c-2.246,3.292 -4.509,6.596 -6.784,9.908c2.375,3.088 4.734,6.188 7.034,9.125l1.875,-0.958l-2.384,-9.342c14.18,-0.187 16.73,-2.462 22.505,-11.466c2.995,2.775 5.912,5.395 8.908,8.17c5.142,-6.92 10.346,-13.679 15.487,-20.6c-1.67,-6.775 -1.662,-1.695 -2.154,-6.333c-0.762,-0.2 -1.575,-0.567 -2.308,-0.779c-4.188,3.892 -3.7,-1.438 -10.071,1.808c-0.95,-0.3 -1.854,-0.621 -2.712,-0.771l-0.871,-1.704c1.529,-1.562 3.183,-2.991 4.741,-4.566c2.521,1.841 5.492,3.65 8.913,5.233c0.641,-0.785 1.331,-1.528 2.067,-2.225c0.091,1.321 0.158,2.262 0.241,3.004c6.025,2.013 13.296,2.413 21.792,-1.525c-0.146,2.813 -0.217,5.779 -0.333,8.579c2.795,-0.646 5.625,-1.3 8.37,-2.116c-3.229,-3.238 -6.541,-6.638 -9.775,-9.875c6.709,-1.855 10.48,-3.192 15.75,-1.575l5.63,-2.867c-4.217,-3.525 0.204,-1.863 -5.509,-1.496l2.029,-5.333c6.234,3.079 2.934,1.046 4.35,8.537c8.213,-0.279 0.642,-3.066 9.163,-0.566c-2.575,-10.03 0.921,-10.83 -2.142,-18.067c12.842,2.254 7.238,9.8 16.775,-4.246c2.375,3.092 4.734,6.192 7,9.142c2.892,-2.063 5.721,-4.284 8.584,-6.329c-7.042,-1.105 -0.909,-0.909 -8.371,2.112l-2.609,-5.121c-0.47,-2.496 -1.037,-5.141 -1.512,-7.637l7.504,-3.825c1.171,0.771 2.363,1.533 3.533,2.304c-2.191,1.9 -4.354,3.787 -6.629,5.533c-0.066,1.4 -0.071,2.967 -0.137,4.371c9.116,-2.692 5.287,-4.65 10.25,-3.071c1.566,-6.079 0.783,-1.183 -0.721,-6.087c9.162,-0.563 12.137,1.441 21.229,-0.063c0.342,-5.454 1.188,-3.146 4.892,-8.941l1.737,3.412c4.859,0.454 -1.191,4.325 9.029,3.808c-3.183,-6.395 0.734,-18.558 9.125,-23.812c-2.712,-0.767 -5.395,-1.354 -8.141,-2.108c1.562,-1.575 3.133,-3.163 4.741,-4.567l6.53,-1.175c-1.171,9.396 2.287,5.875 -2.259,9.558c4.417,5.375 3.371,4.734 8.117,6.617c2.521,-7.733 1.092,-8.963 -3.146,-15.408l9.392,-4.784c3.233,3.242 6.466,6.479 9.775,9.875c2.129,-0.496 4.291,-0.812 6.483,-1.15c-0.4,-7.029 -0.737,-13.896 -1.121,-20.741c0.954,-1.267 1.975,-2.371 2.913,-3.634c3.237,5.975 1.529,2.35 8.037,6.463c-2.829,2.225 -5.646,4.441 -8.525,6.496c3.904,1.529 7.842,3.041 11.854,4.712c-0.183,-5.183 0.117,-6.317 7.755,-12.554c3.975,7.946 -1.38,6.179 11.804,4.546c-1.879,-9.017 -0.204,-7.913 -2.275,-13.704c13.304,0.066 9.821,-1.875 22.25,-2.73l-1.375,-12.008c5.3,2.967 3.679,2.621 6.129,7.433c5.088,-3.962 10.083,-8.07 15.138,-12.016c-2.33,-1.546 -4.771,-3.238 -7.134,-4.771c11.721,-1.279 4.638,3.7 16.525,-0.013c-2.125,-1.066 -4.216,-2.154 -6.266,-3.066c3.654,-0.492 7.354,-1.009 11.037,-1.517c0.083,-1.408 0.121,-2.796 0.2,-4.208c-4.592,-0.004 -0.446,0.425 -3.6,-2.467c-7.05,3.788 -3.475,1.188 -8.504,6.488c-1.821,-2.005 -3.55,-3.863 -5.371,-5.867c2.204,-0.342 4.317,-0.833 6.496,-1.163c-3.559,-0.924 9.679,-0.041 15.904,-5.949c1.775,0.462 3.588,0.908 5.475,1.512c-1.338,2.05 -2.629,4.075 -3.967,6.125c7.788,-1.229 12.575,-7.579 19.975,-16.433c-0.062,6.091 2.634,2.371 -0.337,8.575l0.871,1.708c3.25,-5.954 6.579,-11.758 9.862,-17.733c-5.921,-2.65 -5.221,-2.813 -12.858,-2.05l-4.271,-8.384c8.437,1.767 4.483,0.063 8.037,6.463c9.755,-4.384 9.509,-4.063 16.105,-10.159c0.308,10.988 -2.646,11.321 -4.617,23.467c9.221,-4.696 7.4,-6.312 11.267,-5.741c5.45,-7.271 3.971,-9.45 5.362,-21.892c-4.508,0.929 -2.521,4.021 -4.529,0.35c-6.579,0.229 -0.058,0.033 -4.483,-4.163c-0.25,-2.025 -0.484,-4.054 -0.734,-6.079c8.75,-3.287 8.617,1.475 16.892,-8.608c-1.075,11.108 -5.787,15.267 -1.058,30.454c0.387,-3.912 0.762,-7.817 1.07,-11.887l-0.633,-1.242c0.283,0.054 0.513,-0.067 0.825,-0.029c0.071,-0.817 0.079,-1.8 0.15,-2.617c1.888,0.6 3.696,1.05 5.521,1.488l-5.671,1.129c-0.077,0.421 -0.141,0.845 -0.192,1.271l2.846,5.587c7.404,-8.267 11.8,-15.004 23.663,-18.504c-2.954,-5.146 1.458,-2.117 -4.409,-4.013c2.171,-14.595 8.975,-8.675 11.996,-27.42l5.654,-2.884c-1.666,5.154 0.663,1.225 -3.916,6.296c3,1.208 6.062,2.583 9.058,3.792c-3.062,0.196 -6.129,0.387 -9.242,0.408c-0.279,13.438 -1.4,21.046 -8.275,25.525c-1.283,2.613 -2.1,1.854 -2.741,-0.75c-3.85,4.896 -7.721,9.604 -11.525,14.475c4.671,-5.508 5.283,-1.129 12.091,-4.012c-1.32,2.041 -2.612,4.07 -3.95,6.12l3.48,6.83c4.766,-3.213 0.75,0.4 4.741,-4.567c4.55,-1.146 2.559,-1.304 2.913,-3.633c7.108,-4.405 10.25,1.033 10.5,-11.805l1.891,-0.962l-0.287,8.75l34.929,-24.25c2.658,-4.092 5.208,-8.325 7.867,-12.417c-0.359,2.305 -0.771,4.601 -1.234,6.888c11.75,-5.596 22.542,-14.421 29.38,-21.229c0.354,-2.33 0.741,-4.675 1.125,-7.025c-5.225,0.512 -10.496,1.045 -15.642,1.712c-0.313,-5.9 0.975,-0.692 -2.613,-5.121l1.996,-5.316c16.184,-7.855 20.475,-10.63 33.438,-16.063c-6.513,-2.742 -5.334,-3.342 -11.588,-1.329c0.004,-1.563 0.067,-2.967 0.15,-4.375c6.438,1.021 7.059,0.704 11.984,5.625c2.854,-1.258 6.141,-2.542 10.037,-4.138c-1.729,-1.854 -3.55,-3.862 -5.279,-5.716l4.925,-8.963c3.137,8.763 0.246,1.634 5.137,10.092l14.471,-17.929c-0.336,2.3 -0.739,4.59 -1.208,6.866c0.937,0.309 1.892,0.605 2.746,0.755c4.925,-5.246 4.129,-1.713 5.858,-7.092c0.158,0.312 0.633,-0.517 -0.871,-1.704l7.5,-3.825c-9.354,-4.225 -9.258,-5.642 -15.25,-11.388l5.613,-2.858c5.716,6.667 2.758,0.742 5.137,10.087c2.609,-2.671 5.155,-5.402 7.638,-8.191c2.65,8.033 1.596,10.529 8.771,12.541c-2.325,-2.92 -2.25,-8.825 -0.4,-14.658l2.612,5.125c8.271,-2.65 2.8,1.896 6.646,-5.537c0.787,3.116 1.575,6.233 2.408,9.329c8.263,-9.684 11.092,-14.254 8.125,-21.15c9.167,0.025 2.3,-1.954 7.213,4.929c6.775,-5.017 -0.513,-2.083 7.504,-3.821c0.183,-9.675 -2.738,-7.404 5.042,-13.325c-6.53,-2.733 -1.842,-2.192 -7.288,-0.392c1.021,-2.67 2.025,-5.333 3.017,-7.991c6.996,6.8 3.758,10.404 13.254,16.708c-9.608,14.475 -42.942,33.613 -54.763,36.313c1.505,1.383 2.992,2.775 4.455,4.183c-7.63,7.404 -16.075,5.846 -24.246,8.05c6.358,4.779 0.991,6.729 9.896,5.517c3.595,-1.834 3.162,0.15 2.108,-5.18c7.887,-2.258 13.154,-3.183 24.058,-3.854c-3.975,-6.379 -0.029,-1.937 -5.291,-5.708c11.133,-3.133 7.908,0.075 22.291,-7.254c-1.746,-1.846 -3.521,-3.875 -5.262,-5.725c7.387,-0.442 5.95,0.291 11.133,-1.371c1.213,-2.183 2.546,-4.233 3.871,-6.275c-1.175,-0.771 -2.442,-1.688 -3.617,-2.458c7.204,1.804 3.225,0.704 6.225,7.583c12.5,-12.825 17.138,-22.421 34.929,-24.25l1.125,-7.025c5.013,-5.292 -3.066,-3.913 -8.008,-6.479c3.208,-5.738 0.883,-2.6 6.633,-5.529c-6.145,-5.275 -1.866,-3.938 -8.25,-2.246c2.349,-3.201 4.632,-6.451 6.846,-9.746c4.429,5.171 4.467,2.217 6.159,7.417c14.208,-9.78 3.929,-12.363 18.904,-13.934c-1.604,-7.979 -0.192,-8.308 -5.021,-14.45c1.021,-1.104 1.958,-2.366 2.975,-3.471c4.783,4.405 2.079,4.805 8.037,6.463c6.28,2.858 9.313,-3.375 14.855,-3.267c4.25,-7.446 3.141,-5.708 1.275,-11.404c8.47,0.375 0.345,4.125 11.987,0.346l1.888,-0.967l-4.267,-8.379c3.117,-3.112 6.293,-6.166 9.525,-9.158c-2.158,6.379 -2.583,5.621 -2.254,9.558c-1.446,0.15 -3.021,0.171 -4.609,0.196c1.509,1.383 3.013,2.767 4.505,4.158l5.608,-2.858c4.512,-4.058 2.733,-2.567 8.387,-2.121c-2.945,5.021 -5.925,10.054 -8.858,15.071c-8.175,-4.438 -28.712,15.217 -37.821,27.875c-5.225,-3.204 1.946,-3.538 -4.471,-4.175c-6.791,-0.454 -11.537,8.808 -22.67,15.85c-0.355,2.333 -0.742,4.679 -1.125,7.025c10.775,0.571 5.6,1.45 13.112,-6.679c-0.44,2.283 -0.842,4.574 -1.204,6.871c27.542,-15.796 56.008,-53.567 81.183,-54.075l3.234,-12.205c0.937,-1.262 1.879,-2.52 2.895,-3.625c-7.308,4.7 -2.979,1.125 -7.733,8.046l-3.4,-6.679c-5.762,7.238 -5.437,4.925 -4.129,10.517c-7.038,-4.238 -3.696,-2.421 -3.267,-11.046c-6.175,0.604 -3.7,0.321 -8.358,2.104c4.754,-8.871 20.425,-3.367 23.512,-14.129c1.884,-3.5 2.384,-3.171 -1.662,-3.258c3.758,-5.042 10.317,-2.13 19.642,-7.855l8.291,-2.27c-0.958,10.458 2.542,6.72 -7.637,8.191c-1.692,4.384 -3.4,8.771 -5.042,13.325c0.15,-4.379 0.283,-8.75 0.438,-13.129c-3.65,3.225 -1.592,1.396 -5.763,7.238c-1.408,5.016 -2.796,10.029 -4.25,14.875l3.733,-1.905l1.742,3.417c3.454,-7.433 2.25,-2.517 0.363,-8.596c17.166,1.813 26.287,-9.287 42.933,-17.771c0.85,-4.537 1.621,-9.229 2.362,-13.908c0.438,4.271 0.717,2.371 4.634,-0.212c-0.7,1.725 -1.4,3.454 -2.025,5.333c11.741,-1.288 29.366,-13.596 25.687,-23.842c10.667,-1.133 6.825,1.217 13.996,-4.979c-0.383,2.346 -0.737,4.675 -1.125,7.025c4.042,-2.842 8.204,-5.55 12.242,-8.392c-3.35,-6.5 -1.817,-3.566 -7.017,-9.133c16.742,2.813 16.692,-8.892 26.017,-12.079c-0.575,0.096 -1.213,-0.167 -1.588,-0.367c1.446,-0.15 3.017,-0.166 4.588,-0.183c-1.15,-0 -2.096,0.283 -3,0.55c9.358,0.317 35.016,-27.029 36.337,-32.592c-0.937,1.259 -1.875,2.517 -2.896,3.625c3.555,-9.046 10.617,-11.275 10.013,-22.112c9.229,-0.009 0.762,3.716 9.242,-0.409c2.191,-0.333 4.32,-0.829 6.512,-1.166c-2.727,-2.179 -5.433,-4.385 -8.117,-6.617c4.117,-0.925 1.9,1.771 3.767,-1.921c6.017,0.846 4.079,0.075 9.104,3.963c9.234,-14.871 11.796,-19.496 34.059,-25.954c-2.363,-1.534 -4.805,-3.221 -7.167,-4.755c5.225,-0.512 10.496,-1.05 15.721,-1.558c-4.138,-3.562 -8.321,-7.1 -12.492,-10.646c5.496,-0.062 11.054,0.038 16.546,-0.025c-0.233,-2.029 -0.517,-4.037 -0.75,-6.066l-4.754,4.57l-4.409,-4.008c6.863,-2.129 5.117,-4.175 11.405,-10.112c-0.938,1.258 -1.959,2.366 -2.896,3.625c9.412,3.612 16.054,1.204 18.633,-5.192c-1.021,1.104 -1.958,2.367 -2.946,3.454c6.096,-15.812 108.146,-100.854 114.309,-104.971c-2.996,-2.775 -5.88,-5.412 -8.875,-8.187c10.745,-4.888 18.662,-16.546 27.758,-29.004c10.542,-3.413 5.612,-14.392 7.254,-22.855c8.838,-0.2 2.954,-4.241 10.113,1.3c4.783,-6.933 3.141,-7.466 6.916,-14.279c-1.741,-1.85 -3.55,-3.858 -5.291,-5.708l5.425,1.337c6.883,-1.55 0.137,3.255 12.004,0.338l-1.742,-3.413c2.071,-0.27 5.925,-17.683 4.492,-23.6c58.529,-10.075 102.246,-110.95 153.462,-143.495l0.025,-0.6c0.171,0.108 0.329,0.225 0.392,0.191c2.327,-1.411 4.698,-2.749 7.108,-4.012c-0.954,-6.554 -1.925,-13.096 -2.883,-19.646l9.375,-4.779c-2.208,0.146 80.846,-73.259 80.846,-73.259c2.696,-7.041 5.425,-14.1 8.121,-21.145l-6.013,-11.796c-6.312,4.583 -12.558,9.329 -18.9,13.933c3.296,-9.7 -0.242,-8.483 4.233,-14.867c3.05,3.917 -1.308,1.838 4.421,4.005Zm-2893.5,1400.01c0.046,-0.221 0.155,-0.275 0.28,-0.337c-2.438,0.85 -2.963,1.116 -0.28,0.337Z" style="fill:#002B3D;fill-rule:nonzero;"/></svg>
