<?xml version="1.0" encoding="UTF-8" standalone="no"?><!DOCTYPE svg PUBLIC
        "-//W3C//DTD SVG 1.1//EN" "http://www.w3.org/Graphics/SVG/1.1/DTD/svg11.dtd">
<svg width="100%" height="100%" viewBox="0 0 3013 2371" version="1.1"
     xmlns="http://www.w3.org/2000/svg"
     xml:space="preserve"
     style="fill-rule:evenodd;clip-rule:evenodd;stroke-linejoin:round;stroke-miterlimit:2;"><path d="M2933.2,1006.68l-0.025,-0.012c50.492,89.045 79.321,191.991 79.321,301.67c0,287.155 -197.604,528.155 -464.25,594.438l-1520.33,417.8c-84.313,32.466 -175.913,50.262 -271.667,50.262c-417.667,0 -756.25,-338.583 -756.25,-756.25c0,-142.733 39.542,-276.233 108.271,-390.137l-0.067,0.033l481.429,-901.362c88.505,-184.346 273.38,-313.646 489.33,-322.617l0.033,-0.5l1046,-0l0.012,0.042c174.367,2.32 325.338,101.575 401.484,246.333l0.004,-0.021l406.708,760.321Z" style="fill:#002B3D;fill-rule:nonzero;"/></svg>
